<svg height="36" viewBox="0 0 36 36" width="36" xmlns="http://www.w3.org/2000/svg"><g fill="none" fill-rule="evenodd"><path d="m4.953 0c-.526 0-.953.421-.953 1.238v33.812c0 .222.427.95.953.95h26.094c.526 0 .953-.728.953-.95v-26.707c0-.447-.06-.591-.167-.697l-7.577-7.481a.58.58 0 0 0 -.406-.165z" fill="#e9e9e0" fill-rule="nonzero"/><path d="m24.2600002.17 7.5699997 7.4800001h-7.5699997z" fill="#d9d7ca"/><path d="m4.953 36a.95.95 0 0 1 -.953-.947v-10.053h28v10.053a.95.95 0 0 1 -.953.947z" fill="#13a085" fill-rule="nonzero"/><path d="m6.804 32.116h.976c.02.523.42.88.972.88.693 0 1.055-.401 1.055-1.134v-4.697h1.005v4.639c0 1.386-.761 2.163-2.055 2.163-1.226 0-1.953-.81-1.953-1.85zm8.286-4.951c1.333 0 2.168.908 2.168 2.148s-.84 2.134-2.173 2.134h-1.494v2.383h-1.006v-6.665zm1.138 2.148c0-.795-.464-1.245-1.26-1.245h-1.378v2.49h1.377c.796 0 1.26-.458 1.26-1.245zm6.4 3.6v.917h-4.096v-6.665h4.097v.918h-3.096v1.919h2.92v.879h-2.92v2.031h3.096zm6.524-3.853h-.996c-.166-.664-.713-1.094-1.509-1.094-1.069 0-1.699.766-1.699 2.08v.869c0 1.309.61 2.12 1.729 2.12 1.025 0 1.548-.577 1.548-1.339v-.537h-1.607v-.86h2.578v1.353c0 1.29-.879 2.315-2.52 2.315-1.772 0-2.738-1.182-2.738-3.047v-.884c0-1.821 1.02-3.003 2.729-3.003 1.401 0 2.33.87 2.485 2.027z" fill="#fff"/><g fill-rule="nonzero"><path d="m4 25h28v-7.8928571l-6.7857143-6.1071429-6.75 7.3928571-3.5247857-3.5247857-10.9395 9.3105z" fill="#26b99a"/><path d="m14.491 9.277a2.938 2.938 0 1 1 -5.875 0 2.938 2.938 0 0 1 5.875 0" fill="#f3d55b"/></g></g></svg>
