<svg height="36" viewBox="0 0 36 36" width="36" xmlns="http://www.w3.org/2000/svg"><g fill="none" fill-rule="evenodd"><path d="m4.953 0c-.526 0-.953.421-.953 1.238v33.812c0 .222.427.95.953.95h26.094c.526 0 .953-.728.953-.95v-26.707c0-.447-.06-.591-.167-.697l-7.577-7.481a.58.58 0 0 0 -.406-.165z" fill="#e9e9e0" fill-rule="nonzero"/><path d="m24.2600002.17 7.5699997 7.4800001h-7.5699997z" fill="#d9d7ca"/><path d="m4.953 36a.95.95 0 0 1 -.953-.947v-10.053h28v10.053a.95.95 0 0 1 -.953.947z" fill="#d75d72" fill-rule="nonzero"/><path d="m11.997 33.833h-1.03l2.324-6.666h1.088l2.32 6.666h-1.06l-.62-1.86h-2.397zm1.845-5.528h-.044l-.937 2.837h1.919zm5.645 5.528-2.349-6.666h1.153l1.733 5.445h.054l1.728-5.445h1.128l-2.344 6.666zm5.547 0h-1.006v-6.666h1.006z" fill="#fff"/><path d="m14.7321429 18v-9l7.0714285 4.5z" fill="#c8bdb8" fill-rule="nonzero"/></g></svg>
