<svg width="36px" height="36px" viewBox="0 0 36 36" version="1.1" xmlns="http://www.w3.org/2000/svg" xmlns:xlink="http://www.w3.org/1999/xlink">
    <g id="file_sketch" stroke="none" stroke-width="1" fill="none" fill-rule="evenodd">
        <path d="M4.95265116,0 C4.42651163,0 4,0.421071429 4,1.23814286 L4,35.0499992 C4,35.271785 4.42651163,36 4.95265116,36 L31.0473488,36 C31.5734884,36 32,35.271785 32,35.0499992 L32,8.343 C32,7.89557143 31.9394419,7.75157143 31.8326512,7.6455 L24.2557209,0.165214286 C24.1482791,0.0597857143 24.0024186,0 23.8506977,0 L4.95265116,0 Z" id="Fill-16" fill="#E9E9E0" fill-rule="nonzero"></path>
        <polygon id="Shape" fill="#C8BDB8" fill-rule="nonzero" points="25.9333333 11.6666667 18.4666667 21 11 11.6666667 13.8 7 23.1333333 7"></polygon>
        <polygon id="Rectangle-2" fill="#D9D7CA" points="24.2600002 0.170000002 31.8299999 7.6500001 24.2600002 7.6500001"></polygon>
        <path d="M4.95265116,36 C4.42651163,36 4,35.5761765 4,35.0533529 L4,25 L32,25 L32,35.0533529 C32,35.5761765 31.5734884,36 31.0473488,36 L4.95265116,36 Z" id="Fill-178" fill="#FC9B00" fill-rule="nonzero"></path>
        <path d="M4.96761993,31.8068361 L5.96371368,31.8068361 C6.08090118,32.3878908 6.65707305,32.7833986 7.50668243,32.7833986 C8.40511993,32.7833986 8.9422293,32.3683596 8.9422293,31.7384768 C8.9422293,31.2306643 8.60531524,30.9523439 7.87289337,30.7716799 L6.74496368,30.4982424 C5.7391043,30.2492189 5.14340118,29.648633 5.14340118,28.7062502 C5.14340118,27.5343752 6.1297293,26.7384768 7.51156524,26.7384768 C8.88363555,26.7384768 9.77230743,27.5197268 9.86508087,28.5402346 L8.87386993,28.5402346 C8.76156524,27.9982424 8.25863555,27.6320314 7.4969168,27.6320314 C6.68636993,27.6320314 6.15902618,28.0470705 6.15902618,28.6427736 C6.15902618,29.0822268 6.48617462,29.3800783 7.08676055,29.5216799 L8.20492462,29.7951174 C9.34750274,30.0734377 9.95297149,30.6105471 9.95297149,31.6408205 C9.95297149,32.8664064 8.99594024,33.6867189 7.4187918,33.6867189 C5.9344168,33.6867189 5.05062774,32.8712893 4.96761993,31.8068361 Z M16.3885184,26.8849611 L13.9422293,29.7365236 L16.5105887,33.5500002 L15.2654715,33.5500002 L13.195159,30.4689455 L12.4187918,31.3039064 L12.4187918,33.5500002 L11.4129324,33.5500002 L11.4129324,26.8849611 L12.4187918,26.8849611 L12.4187918,29.9904299 L12.4627371,29.9904299 L15.2410574,26.8849611 L16.3885184,26.8849611 Z M21.6717215,32.6320314 L21.6717215,33.5500002 L17.5750418,33.5500002 L17.5750418,26.8849611 L21.6717215,26.8849611 L21.6717215,27.8029299 L18.5760184,27.8029299 L18.5760184,29.7218752 L21.4959402,29.7218752 L21.4959402,30.6007814 L18.5760184,30.6007814 L18.5760184,32.6320314 L21.6717215,32.6320314 Z M25.5535574,33.5500002 L24.5476981,33.5500002 L24.5476981,27.8126955 L22.570159,27.8126955 L22.570159,26.8849611 L27.5310965,26.8849611 L27.5310965,27.8126955 L25.5535574,27.8126955 L25.5535574,33.5500002 Z M28.4881277,32.8957033 C28.4881277,32.4416018 28.820159,32.1339846 29.2254324,32.1339846 C29.6502371,32.1339846 29.9773856,32.4416018 29.9773856,32.8957033 C29.9773856,33.3351564 29.6502371,33.6378908 29.2254324,33.6378908 C28.820159,33.6378908 28.4881277,33.3351564 28.4881277,32.8957033 Z" id="SKET." fill="#FFFFFF"></path>
    </g>
</svg>
