<svg height="36" viewBox="0 0 36 36" width="36" xmlns="http://www.w3.org/2000/svg"><g fill="none" fill-rule="evenodd"><path d="m4.953 0c-.526 0-.953.421-.953 1.238v33.812c0 .222.427.95.953.95h26.094c.526 0 .953-.728.953-.95v-26.707c0-.447-.06-.591-.167-.697l-7.577-7.481a.58.58 0 0 0 -.406-.165z" fill="#e9e9e0" fill-rule="nonzero"/><path d="m24.2600002.17 7.5699997 7.4800001h-7.5699997z" fill="#d9d7ca"/><path d="m4.953 36a.95.95 0 0 1 -.953-.947v-10.053h28v10.053a.95.95 0 0 1 -.953.947z" fill="#71c285" fill-rule="nonzero"/><path d="m12.014 33.837h-1.006v-6.665h1.006zm1.338-1.743h.996c.117.581.693.977 1.543.977.898 0 1.435-.415 1.435-1.045 0-.508-.337-.786-1.07-.967l-1.127-.273c-1.006-.25-1.602-.85-1.602-1.792 0-1.172.987-1.968 2.369-1.968 1.372 0 2.26.781 2.353 1.802h-.991c-.112-.542-.615-.909-1.377-.909-.81 0-1.338.415-1.338 1.011 0 .44.327.737.928.88l1.118.273c1.142.278 1.748.815 1.748 1.845 0 1.226-.957 2.046-2.534 2.046-1.485 0-2.368-.815-2.451-1.88zm10.625-2.05c0-1.392-.738-2.076-1.714-2.076-.982 0-1.714.684-1.714 2.075v.928c0 1.392.732 2.07 1.714 2.07.976 0 1.714-.678 1.714-2.07v-.928zm1.015.922c0 1.885-1.06 3.008-2.73 3.008-1.674 0-2.729-1.123-2.729-3.008v-.918c0-1.894 1.055-3.007 2.73-3.007 1.67 0 2.73 1.118 2.73 3.007v.918z" fill="#fff"/><g fill-rule="nonzero"><path d="m23.258 8.045a7.713 7.713 0 0 1 0 10.91 7.713 7.713 0 0 1 -10.91 0 7.713 7.713 0 0 1 0-10.91 7.713 7.713 0 0 1 10.91 0" fill="#c8bdb8"/><path d="m19.167 12.136a1.928 1.928 0 1 1 -2.725 2.728 1.928 1.928 0 0 1 2.725-2.728" fill="#e9e9e0"/><path d="m16.44 12.136c.085-.084.177-.157.273-.223l-1.518-5.665a7.658 7.658 0 0 0 -2.846 1.797 7.658 7.658 0 0 0 -1.797 2.846l5.665 1.518c.066-.095.138-.188.223-.273m3.016 2.962 1.462 5.454a7.665 7.665 0 0 0 2.34-1.597 7.674 7.674 0 0 0 1.764-2.749l-5.263-1.41a.246.246 0 0 0 -.303.302" fill="#d3ccc9"/></g></g></svg>
