<svg height="36" viewBox="0 0 36 36" width="36" xmlns="http://www.w3.org/2000/svg"><g fill="none" fill-rule="evenodd"><path d="m4.953 0c-.526 0-.953.421-.953 1.238v33.812c0 .222.427.95.953.95h26.094c.526 0 .953-.728.953-.95v-26.707c0-.447-.06-.591-.167-.697l-7.577-7.481a.58.58 0 0 0 -.406-.165z" fill="#e9e9e0" fill-rule="nonzero"/><path d="m24.2600002.17 7.5699997 7.4800001h-7.5699997z" fill="#d9d7ca"/><path d="m4.953 36a.95.95 0 0 1 -.953-.947v-10.053h28v10.053a.95.95 0 0 1 -.953.947z" fill="#95a5a5" fill-rule="nonzero"/><path d="m12.875 33.833h-1.005v-5.738h-1.978v-.928h4.961v.928h-1.978zm7.92-6.666-2.182 3.355 2.143 3.31h-1.186l-1.587-2.5h-.049l-1.592 2.5h-1.118l2.139-3.359-2.114-3.306h1.2l1.583 2.52h.049l1.567-2.52zm3.335 6.666h-1.005v-5.738h-1.978v-.928h4.96v.928h-1.977z" fill="#fff"/><path d="m8.036 8.357a.643.643 0 1 1 0-1.286h3.857a.643.643 0 1 1 0 1.286zm0 3.214a.643.643 0 1 1 0-1.285h5.785a.643.643 0 1 1 0 1.285zm7.9-.186a.661.661 0 0 1 -.186-.456.64.64 0 0 1 .193-.457c.231-.238.668-.238.906 0 .116.122.187.29.187.457s-.071.334-.187.456a.676.676 0 0 1 -.456.186.676.676 0 0 1 -.457-.186zm3.028.186a.643.643 0 1 1 0-1.285h5.143a.643.643 0 1 1 0 1.285zm-11.384 9.457a.673.673 0 0 1 -.186-.457c0-.167.07-.334.186-.456a.667.667 0 0 1 .913.006.648.648 0 0 1 .187.45c0 .168-.071.335-.187.457a.676.676 0 0 1 -.456.186.676.676 0 0 1 -.457-.186zm3.028.186a.643.643 0 1 1 0-1.285h5.143a.643.643 0 1 1 0 1.285zm16.072-9.643a.643.643 0 1 1 0-1.285h1.285a.643.643 0 1 1 0 1.285zm-18.644 3.215a.643.643 0 1 1 0-1.286h14.143a.643.643 0 1 1 0 1.286zm16.071 0a.643.643 0 1 1 0-1.286h3.857a.643.643 0 1 1 0 1.286zm-16.071 3.214a.643.643 0 1 1 0-1.286h2.571a.643.643 0 1 1 0 1.286zm5.143 0a.643.643 0 1 1 0-1.286h6.428a.643.643 0 1 1 0 1.286h-6.427zm9 0a.643.643 0 1 1 0-1.286h5.785a.643.643 0 1 1 0 1.286h-5.784z" fill="#c8bdb8" fill-rule="nonzero"/></g></svg>
