<svg height="36" viewBox="0 0 36 36" width="36" xmlns="http://www.w3.org/2000/svg"><g fill="none" fill-rule="evenodd"><path d="m4.953 0c-.526 0-.953.421-.953 1.238v33.812c0 .222.427.95.953.95h26.094c.526 0 .953-.728.953-.95v-26.707c0-.447-.06-.591-.167-.697l-7.577-7.481a.58.58 0 0 0 -.406-.165z" fill="#e9e9e0" fill-rule="nonzero"/><path d="m24.2600002.17 7.5699997 7.4800001h-7.5699997z" fill="#d9d7ca"/><path d="m4.953 36a.95.95 0 0 1 -.953-.947v-10.053h28v10.053a.95.95 0 0 1 -.953.947z" fill="#466c9c" fill-rule="nonzero"/><path d="m16.394 29.06h-.997c-.166-.664-.712-1.094-1.508-1.094-1.07 0-1.7.766-1.7 2.08v.869c0 1.309.61 2.12 1.729 2.12 1.025 0 1.548-.577 1.548-1.339v-.537h-1.607v-.86h2.579v1.353c0 1.29-.88 2.315-2.52 2.315-1.772 0-2.74-1.182-2.74-3.047v-.884c0-1.821 1.021-3.003 2.73-3.003 1.402 0 2.33.87 2.486 2.027zm2.583 4.77h-1.007v-6.665h1.006v6.665zm2.807 0h-1.006v-6.665h4.043v.923h-3.037v2.065h2.779v.909h-2.779z" fill="#fff"/><g fill-rule="nonzero"><path d="m14.491 9.277a2.938 2.938 0 1 1 -5.875 0 2.938 2.938 0 0 1 5.875 0" fill="#f3d55b"/><path d="m4 25h28v-7.8928571l-6.7857143-6.1071429-6.75 7.3928571-3.5247857-3.5247857-10.9395 9.3105z" fill="#5889c4"/></g></g></svg>
