<svg height="36" viewBox="0 0 36 36" width="36" xmlns="http://www.w3.org/2000/svg"><g fill="none" fill-rule="evenodd"><path d="m4.953 0c-.526 0-.953.421-.953 1.238v33.812c0 .222.427.95.953.95h26.094c.526 0 .953-.728.953-.95v-26.707c0-.447-.06-.591-.167-.697l-7.577-7.481a.58.58 0 0 0 -.406-.165z" fill="#e9e9e0" fill-rule="nonzero"/><path d="m24.2600002.17 7.5699997 7.4800001h-7.5699997z" fill="#d9d7ca"/><path d="m4.953 36a.95.95 0 0 1 -.953-.947v-10.053h28v10.053a.95.95 0 0 1 -.953.947z" fill="#0f8888" fill-rule="nonzero"/><path d="m7.917 27.165h2.236c1.968 0 2.945 1.177 2.945 3.325 0 2.149-.982 3.34-2.945 3.34h-2.236zm1.006.913v4.834h1.138c1.352 0 2.002-.796 2.002-2.407 0-1.616-.655-2.427-2.002-2.427zm7.622 5.752h-.908l-1.812-6.665h1.133l1.157 5.103h.054l1.274-5.103h.943l1.274 5.103h.054l1.157-5.103h1.133l-1.812 6.665h-.908l-1.347-4.97h-.044zm11.494-4.77h-.996c-.166-.664-.713-1.094-1.509-1.094-1.07 0-1.699.766-1.699 2.08v.869c0 1.309.61 2.12 1.728 2.12 1.026 0 1.548-.577 1.548-1.339v-.537h-1.606v-.86h2.578v1.353c0 1.29-.879 2.315-2.52 2.315-1.772 0-2.739-1.182-2.739-3.047v-.884c0-1.821 1.02-3.003 2.73-3.003 1.401 0 2.329.87 2.485 2.027z" fill="#fff"/><g fill-rule="nonzero"><path d="m6.91964286 8.35714286h9.64285714v9.68464284h-9.64285714z" fill="#c8bdb8"/><path d="m21.0625 9h1.2857143v4.5h-1.2857143z" fill="#ada29e"/><path d="m21.0625 18.6428571h1.2857143v4.5h-1.2857143z" fill="#ada29e"/><path d="m18.491 12.857h6.429v6.429h-6.43v-6.429zm1.286 5.143h3.857v-3.857h-3.857z" fill="#ada29e"/><path d="m24.2767857 15.4285714h4.5v1.2857143h-4.5z" fill="#ada29e"/><path d="m14.6339286 15.4285714h4.5v1.2857143h-4.5z" fill="#ada29e"/></g></g></svg>
