<svg height="36" viewBox="0 0 36 36" width="36" xmlns="http://www.w3.org/2000/svg"><g fill="none"><path d="m23.401 0h-18.657c-.52 0-.94.421-.94 1.238v34.12c0 .22.42.642.94.642h25.762c.52 0 .94-.421.94-.643v-27.014c0-.447-.06-.591-.165-.697l-7.48-7.48a.568.568 0 0 0 -.401-.166" fill="#e9e9e0"/><path d="m30.506 36h-25.762c-.52 0-.94-.433-.94-.968v-10.282h27.642v10.282c0 .535-.42.968-.94.968" fill="#eeaf4b"/><path d="m18.38 6.75c1.204 0 2.187.315 2.93.983.74.649 1.112 1.539 1.112 2.67 0 .927-.241 1.688-.686 2.281-.167.186-.705.686-1.595 1.465-.334.26-.575.575-.742.909-.185.37-.278.779-.278 1.224v.26h-2.133v-.26c0-.705.112-1.317.371-1.818.241-.5.964-1.28 2.17-2.355l.222-.26c.334-.407.501-.852.501-1.316 0-.612-.185-1.094-.52-1.446-.352-.353-.852-.52-1.483-.52-.797 0-1.372.241-1.743.742-.315.427-.463 1.039-.463 1.836h-2.114c0-1.372.389-2.448 1.205-3.227.797-.779 1.873-1.168 3.245-1.168zm-.335 10.7c.408 0 .76.13 1.039.39.26.259.408.593.408 1 0 .409-.149.761-.408 1.02-.297.26-.63.39-1.039.39a1.37 1.37 0 0 1 -1.001-.408c-.297-.26-.427-.593-.427-1.001s.13-.742.427-1.002c.26-.26.593-.39 1.001-.39z" fill="#c8bdb8"/><path d="m23.7321428.09707142v7.6172143h7.6172144z" fill="#d9d7ca"/></g></svg>
