<svg width="36" height="36" viewBox="0 0 36 36" xmlns="http://www.w3.org/2000/svg"><title>file_mov</title><g fill="none" fill-rule="evenodd"><path d="M4.953 0C4.427 0 4 .421 4 1.238V35.05c0 .222.427.95.953.95h26.094c.526 0 .953-.728.953-.95V8.343c0-.447-.06-.591-.167-.697L24.256.165A.58.58 0 0 0 23.85 0H4.953z" fill="#E9E9E0" fill-rule="nonzero"/><path d="M4.953 36A.95.95 0 0 1 4 35.053V25h28v10.053a.95.95 0 0 1-.953.947H4.953z" fill="#FF0201" fill-rule="nonzero"/><path d="M8.945 33.55h-.992v-6.665h1.109l2.036 4.614h.04l2.035-4.614h1.104v6.665h-1.001v-4.585h-.059l-1.709 3.843h-.796l-1.709-3.843h-.058v4.585zm11.26-3.784c0-1.353-.704-2.022-1.646-2.022-.952 0-1.65.67-1.65 2.022v.908c0 1.353.698 2.022 1.65 2.022.942 0 1.645-.67 1.645-2.022v-.908zm1.122.903c0 1.885-1.06 3.013-2.768 3.013-1.71 0-2.774-1.128-2.774-3.013v-.893c0-1.895 1.065-3.023 2.774-3.023s2.768 1.133 2.768 3.023v.893zm3.11 2.881l-2.309-6.665h1.275l1.655 5.366h.054l1.65-5.366h1.235l-2.3 6.665h-1.26z" fill="#FFF"/><path d="M15.134 18a.645.645 0 0 1-.643-.643v-9a.644.644 0 0 1 .988-.542l7.072 4.5a.644.644 0 0 1 0 1.085l-7.072 4.5a.647.647 0 0 1-.345.1zm.643-8.472v6.658l5.23-3.329-5.23-3.33z" fill="#C8BDB8" fill-rule="nonzero"/><path d="M17.705 22.5c-5.317 0-9.642-4.326-9.642-9.643 0-5.317 4.325-9.643 9.642-9.643 5.317 0 9.643 4.326 9.643 9.643 0 5.317-4.326 9.643-9.643 9.643zm0-18c-4.608 0-8.357 3.75-8.357 8.357 0 4.608 3.75 8.357 8.357 8.357 4.609 0 8.358-3.749 8.358-8.357 0-4.608-3.749-8.357-8.358-8.357z" fill="#C8BDB8" fill-rule="nonzero"/><path fill="#D9D7CA" d="M24.2600002 0.170000002L31.8299999 7.6500001 24.2600002 7.6500001z"/></g></svg>