<svg width="36" height="36" viewBox="0 0 36 36" xmlns="http://www.w3.org/2000/svg"><title>file_webm</title><g fill="none" fill-rule="evenodd"><path d="M4.953 0C4.427 0 4 .421 4 1.238V35.05c0 .222.427.95.953.95h26.094c.526 0 .953-.728.953-.95V8.343c0-.447-.06-.591-.167-.697L24.256.165A.58.58 0 0 0 23.85 0H4.953z" fill="#E9E9E0" fill-rule="nonzero"/><path d="M4.953 36A.95.95 0 0 1 4 35.053V25h28v10.053a.95.95 0 0 1-.953.947H4.953z" fill="#FF0201" fill-rule="nonzero"/><path d="M6.833 34H5.827L4.03 27.335h1.23l1.11 5.01h.053l1.245-5.01h1.006l1.24 5.01h.059l1.103-5.01h1.23L10.51 34H9.504L8.19 29.142h-.043L6.833 34zm10.689-.972V34h-4.16v-6.665h4.16v.972h-3.057v1.85h2.876v.923h-2.876v1.948h3.057zM19.06 34v-6.665h2.656c1.162 0 1.914.625 1.914 1.64 0 .792-.44 1.285-1.108 1.465v.05c.844.092 1.464.654 1.464 1.635 0 1.182-.932 1.875-2.319 1.875H19.06zm1.103-5.757v1.895h.938c.99 0 1.43-.332 1.43-.967 0-.576-.385-.928-1.05-.928h-1.318zm0 2.754v2.095h1.06c1.162 0 1.635-.332 1.635-1.02 0-.67-.459-1.075-1.284-1.075h-1.41zM26.393 34h-.99v-6.665h1.108l2.036 4.614h.039l2.036-4.614h1.104V34h-1.001v-4.585h-.059l-1.709 3.843h-.796l-1.709-3.843h-.058V34z" fill="#FFF"/><path d="M15.134 18a.645.645 0 0 1-.643-.643v-9a.644.644 0 0 1 .988-.542l7.072 4.5a.644.644 0 0 1 0 1.085l-7.072 4.5a.647.647 0 0 1-.345.1zm.643-8.472v6.658l5.23-3.329-5.23-3.33z" fill="#C8BDB8" fill-rule="nonzero"/><path d="M17.705 22.5c-5.317 0-9.642-4.326-9.642-9.643 0-5.317 4.325-9.643 9.642-9.643 5.317 0 9.643 4.326 9.643 9.643 0 5.317-4.326 9.643-9.643 9.643zm0-18c-4.608 0-8.357 3.75-8.357 8.357 0 4.608 3.75 8.357 8.357 8.357 4.609 0 8.358-3.749 8.358-8.357 0-4.608-3.749-8.357-8.358-8.357z" fill="#C8BDB8" fill-rule="nonzero"/><path fill="#D9D7CA" d="M24.2600002 0.170000002L31.8299999 7.6500001 24.2600002 7.6500001z"/></g></svg>