<svg width="36" height="36" viewBox="0 0 36 36" xmlns="http://www.w3.org/2000/svg"><title>file_mp3</title><g fill="none" fill-rule="evenodd"><path d="M4.953 0C4.427 0 4 .421 4 1.238V35.05c0 .222.427.95.953.95h26.094c.526 0 .953-.728.953-.95V8.343c0-.447-.06-.591-.167-.697L24.256.165A.58.58 0 0 0 23.85 0H4.953z" fill="#E9E9E0" fill-rule="nonzero"/><path fill="#D9D7CA" d="M24.2600002 0.170000002L31.8299999 7.6500001 24.2600002 7.6500001z"/><path d="M4.953 36A.95.95 0 0 1 4 35.053V25h28v10.053a.95.95 0 0 1-.953.947H4.953z" fill="#7D6599" fill-rule="nonzero"/><path d="M9.772 33.83h-.908v-6.665h1.001l2.1 4.77h.039l2.1-4.77h.995v6.665h-.913v-4.668h-.053l-1.768 3.975h-.767l-1.777-3.975h-.049v4.668zm9.649-6.665c1.333 0 2.168.908 2.168 2.149 0 1.24-.84 2.133-2.173 2.133h-1.494v2.383h-1.006v-6.665h2.505zm1.137 2.149c0-.796-.463-1.246-1.26-1.246h-1.376v2.49h1.377c.796 0 1.26-.458 1.26-1.244zm3.501 1.518v-.874h.694c.669 0 1.167-.44 1.162-1.045 0-.596-.483-1.01-1.167-1.01-.679 0-1.128.42-1.167.888h-.947c.029-.937.761-1.753 2.129-1.758 1.298-.01 2.128.738 2.153 1.714.024.947-.733 1.484-1.23 1.568v.058c.57.064 1.43.532 1.45 1.602.02 1.206-1.026 1.992-2.403 1.992s-2.207-.8-2.25-1.777h.932c.054.502.59.893 1.333.898.84.005 1.387-.479 1.377-1.143-.005-.659-.547-1.113-1.338-1.113h-.728z" fill="#FFF"/><path d="M23.394 9.634c-.364-.512-.835-.992-1.483-1.51-2.516-2.014-3.058-4.036-3.126-4.332v-.578a.642.642 0 1 0-1.286 0v11.837h-2.382c-2.496 0-4.046 1.26-4.046 3.29 0 2.227 1.44 3.667 3.668 3.667a4.05 4.05 0 0 0 4.046-4.046v-7.375l.192.156c.218.216.553.463.978.775 1.49 1.099 3.986 2.936 3.358 5.01a.643.643 0 0 0 1.23.373c1.046-3.456-.271-6.037-1.149-7.267zM17.5 17.962a2.763 2.763 0 0 1-2.76 2.76c-1.514 0-2.382-.867-2.382-2.382 0-1.656 1.5-2.004 2.76-2.004h2.382v1.626zm3.218-7.478c-.367-.272-.685-.505-.881-.695l-1.05-.862V6.695c.53.754 1.277 1.597 2.321 2.432.552.443.946.84 1.24 1.254.46.644.92 1.503 1.15 2.556-.853-1.034-1.983-1.866-2.78-2.453z" fill="#C8BDB8" fill-rule="nonzero"/></g></svg>