<svg width="36" height="36" viewBox="0 0 36 36" xmlns="http://www.w3.org/2000/svg"><g fill="none" fill-rule="evenodd"><path d="M4.953 0C4.427 0 4 .421 4 1.238V35.05c0 .222.427.95.953.95h26.094c.526 0 .953-.728.953-.95V8.343c0-.447-.06-.591-.167-.697L24.256.165A.58.58 0 0 0 23.85 0H4.953z" fill="#E9E9E0" fill-rule="nonzero"/><path fill="#D9D7CA" d="M24.2600002 0.170000002L31.8299999 7.6500001 24.2600002 7.6500001z"/><path d="M4.953 36A.95.95 0 0 1 4 35.053V25h28v10.053a.95.95 0 0 1-.953.947H4.953z" fill="#EEAF4B" fill-rule="nonzero"/><path d="M12.849 32.124h.976c.02.522.42.878.972.878.693 0 1.055-.4 1.055-1.132v-4.698h1.005v4.639c0 1.387-.761 2.163-2.055 2.163-1.226 0-1.953-.81-1.953-1.85zm5.317-.03h.996c.117.581.693.977 1.543.977.899 0 1.436-.415 1.436-1.045 0-.508-.337-.786-1.07-.967l-1.128-.273c-1.006-.25-1.601-.85-1.601-1.792 0-1.172.986-1.968 2.368-1.968 1.372 0 2.26.781 2.353 1.802h-.99c-.113-.542-.616-.909-1.378-.909-.81 0-1.338.415-1.338 1.011 0 .44.328.737.928.88l1.118.273c1.143.278 1.748.815 1.748 1.845 0 1.226-.957 2.046-2.534 2.046-1.484 0-2.368-.815-2.451-1.88z" fill="#FFF"/><path d="M12.16 12.214V9.643c0-.354.289-.643.644-.643a.643.643 0 1 0 0-1.286 1.93 1.93 0 0 0-1.929 1.929v2.571c0 .71-.577 1.286-1.286 1.286a.643.643 0 1 0 0 1.286c.71 0 1.286.576 1.286 1.285v2.572a1.93 1.93 0 0 0 1.929 1.928.643.643 0 1 0 0-1.285.644.644 0 0 1-.643-.643V16.07c0-.771-.349-1.456-.889-1.928.54-.472.889-1.157.889-1.929m5.143-1.285a.965.965 0 1 0 0 1.929.965.965 0 0 0 0-1.93m7.714 2.572c-.71 0-1.286-.577-1.286-1.286V9.643a1.93 1.93 0 0 0-1.928-1.929.643.643 0 1 0 0 1.286c.354 0 .642.289.642.643v2.571c0 .772.349 1.457.889 1.929a2.555 2.555 0 0 0-.889 1.928v2.572a.644.644 0 0 1-.642.643.643.643 0 1 0 0 1.285 1.93 1.93 0 0 0 1.928-1.928V16.07c0-.709.577-1.285 1.286-1.285a.643.643 0 1 0 0-1.286m-7.714 1.929a.643.643 0 0 0-.643.642V18a.643.643 0 1 0 1.285 0v-1.929a.643.643 0 0 0-.642-.642" fill="#EEAF4B" fill-rule="nonzero"/></g></svg>
