<svg width="36" height="36" viewBox="0 0 36 36" xmlns="http://www.w3.org/2000/svg"><g fill="none" fill-rule="evenodd"><path d="M4.953 0C4.427 0 4 .421 4 1.238V35.05c0 .222.427.95.953.95h26.094c.526 0 .953-.728.953-.95V8.343c0-.447-.06-.591-.167-.697L24.256.165A.58.58 0 0 0 23.85 0H4.953z" fill="#E9E9E0" fill-rule="nonzero"/><path fill="#D9D7CA" d="M24.2600002 0.170000002L31.8299999 7.6500001 24.2600002 7.6500001z"/><path d="M12 15.333V24a2 2 0 0 0 2 2h8a2 2 0 0 0 2-2v-8.667H12zm4 7.334h-1.333V18H16v4.667zm2.667 0h-1.334V18h1.334v4.667zm2.666 0H20V18h1.333v4.667zm4-10h-4v-2a.667.667 0 0 0-.666-.667h-5.334a.667.667 0 0 0-.666.667v2h-4a.667.667 0 1 0 0 1.333h14.666a.667.667 0 1 0 0-1.333zM16 11.333h4v1.334h-4v-1.334z" fill="#C8BDB8" fill-rule="nonzero"/></g></svg>
