<svg height="36" viewBox="0 0 36 36" width="36" xmlns="http://www.w3.org/2000/svg"><g fill="none" fill-rule="evenodd"><path d="m4.953 0c-.526 0-.953.421-.953 1.238v33.812c0 .222.427.95.953.95h26.094c.526 0 .953-.728.953-.95v-26.707c0-.447-.06-.591-.167-.697l-7.577-7.481a.58.58 0 0 0 -.406-.165z" fill="#e9e9e0" fill-rule="nonzero"/><path d="m24.2600002.17 7.5699997 7.4800001h-7.5699997z" fill="#d9d7ca"/><path d="m4.953 36a.95.95 0 0 1 -.953-.947v-10.053h28v10.053a.95.95 0 0 1 -.953.947z" fill="#ffc14f" fill-rule="nonzero"/><path d="m23.464 7.071v.297a6.454 6.454 0 0 0 -4.18 4.14 2.545 2.545 0 0 0 -1.605-.58 2.569 2.569 0 0 0 -2.48 1.93h-2.02v-1.288h-3.859v3.858h3.858v-1.286h1.877a5.132 5.132 0 0 1 -2.821 3.962 2.565 2.565 0 0 0 -2.27-1.39 2.574 2.574 0 0 0 -2.572 2.57 2.574 2.574 0 0 0 2.571 2.572c1.38 0 2.5-1.094 2.56-2.459a6.43 6.43 0 0 0 3.551-3.904c.441.356.994.577 1.604.577a2.569 2.569 0 0 0 2.48-1.928h2.02v1.286h3.857v-3.858h-3.857v1.286h-1.884a5.15 5.15 0 0 1 3.357-4.19 2.57 2.57 0 0 0 2.384 1.619 2.574 2.574 0 0 0 2.571-2.572v-.643h-5.143zm-12.857 5.786h1.286v1.286h-1.286zm-.643 7.714a1.287 1.287 0 0 1 -1.285-1.285c0-.71.577-1.286 1.285-1.286a1.287 1.287 0 0 1 0 2.571zm13.5-7.714h1.286v1.286h-1.286zm-5.785 1.929a1.287 1.287 0 0 1 -1.286-1.286 1.287 1.287 0 0 1 2.571 0c0 .71-.576 1.286-1.285 1.286zm8.357-5.786c-.465 0-.87-.25-1.096-.62.15-.013.3-.023.453-.023h1.755a1.285 1.285 0 0 1 -1.112.643z" fill="#c8bdb8" fill-rule="nonzero"/><path d="m9.844 30.105v.889c0 1.323.606 2.07 1.675 2.07.84 0 1.416-.483 1.494-1.181h.987v.068c-.088 1.196-1.119 2.05-2.486 2.05-1.714.001-2.684-1.111-2.684-3.001v-.903c0-1.885.991-3.028 2.685-3.028 1.372 0 2.403.88 2.486 2.134v.068h-.987c-.078-.737-.674-1.27-1.494-1.27-1.05 0-1.675.777-1.675 2.105zm5.656-2.905h2.236c1.968 0 2.944 1.177 2.944 3.325 0 2.149-.981 3.34-2.944 3.34h-2.236zm1.006.913v4.834h1.137c1.353 0 2.002-.796 2.002-2.407 0-1.616-.654-2.427-2.002-2.427zm8.11-.913c1.367 0 2.202.806 2.202 2.046 0 .942-.522 1.611-1.23 1.865l1.352 2.754h-1.138l-1.21-2.568h-1.47v2.568h-1.002v-6.665h2.495zm-1.494 3.228h1.323c.854 0 1.338-.391 1.338-1.143 0-.767-.493-1.196-1.304-1.196h-1.357z" fill="#fff"/></g></svg>
