<svg width="36" height="36" viewBox="0 0 36 36" xmlns="http://www.w3.org/2000/svg"><g fill="none" fill-rule="evenodd"><path d="M4.953 0C4.427 0 4 .421 4 1.238V35.05c0 .222.427.95.953.95h26.094c.526 0 .953-.728.953-.95V8.343c0-.447-.06-.591-.167-.697L24.256.165A.58.58 0 0 0 23.85 0H4.953z" fill="#E9E9E0" fill-rule="nonzero"/><path fill="#D9D7CA" d="M24.2600002 0.170000002L31.8299999 7.6500001 24.2600002 7.6500001z"/><path d="M4.953 36A.95.95 0 0 1 4 35.053V25h28v10.053a.95.95 0 0 1-.953.947H4.953z" fill="#9777A8" fill-rule="nonzero"/><path d="M6.186 32.124h.977c.02.522.42.878.971.878.694 0 1.055-.4 1.055-1.132v-4.698h1.006v4.639c0 1.387-.762 2.163-2.056 2.163-1.225 0-1.953-.81-1.953-1.85zm5.317-.03h.997c.117.581.693.977 1.542.977.899 0 1.436-.415 1.436-1.045 0-.508-.337-.786-1.07-.967l-1.127-.273c-1.006-.25-1.602-.85-1.602-1.792 0-1.172.987-1.968 2.368-1.968 1.372 0 2.261.781 2.354 1.802h-.991c-.113-.542-.616-.909-1.377-.909-.81 0-1.338.415-1.338 1.011 0 .44.327.737.928.88l1.118.273c1.142.278 1.748.815 1.748 1.845 0 1.226-.957 2.046-2.534 2.046-1.485 0-2.369-.815-2.452-1.88zm10.625-2.05c0-1.392-.737-2.076-1.713-2.076-.982 0-1.714.684-1.714 2.075v.928c0 1.392.732 2.07 1.714 2.07.976 0 1.713-.678 1.713-2.07v-.928zm1.016.922c0 1.885-1.06 3.008-2.73 3.008-1.674 0-2.729-1.123-2.729-3.008v-.918c0-1.894 1.055-3.007 2.73-3.007 1.67 0 2.729 1.118 2.729 3.007v.918zm2.505 2.871h-.977v-6.665h.913l3.204 4.825h.048v-4.825h.977v6.665h-.913L25.693 29h-.044v4.838z" fill="#FFF"/><path d="M12.857 12.214c0 .772-.348 1.457-.888 1.929.54.472.888 1.157.888 1.928v2.572c0 .354.288.643.643.643a.643.643 0 1 1 0 1.285 1.93 1.93 0 0 1-1.929-1.928V16.07c0-.709-.576-1.285-1.285-1.285a.643.643 0 1 1 0-1.286c.709 0 1.285-.577 1.285-1.286V9.643A1.93 1.93 0 0 1 13.5 7.714.643.643 0 1 1 13.5 9a.644.644 0 0 0-.643.643v2.571zM18 10.93a.965.965 0 1 1 0 1.929.965.965 0 0 1 0-1.93zm7.714 2.571a.643.643 0 1 1 0 1.286c-.708 0-1.285.576-1.285 1.285v2.572A1.93 1.93 0 0 1 22.5 20.57a.643.643 0 1 1 0-1.285.644.644 0 0 0 .643-.643V16.07c0-.771.348-1.456.888-1.928a2.555 2.555 0 0 1-.888-1.929V9.643A.644.644 0 0 0 22.5 9a.643.643 0 1 1 0-1.286 1.93 1.93 0 0 1 1.929 1.929v2.571c0 .71.577 1.286 1.285 1.286zM18 15.429c.355 0 .643.288.643.642V18a.643.643 0 1 1-1.286 0v-1.929c0-.354.288-.642.643-.642z" fill="#9777A8" fill-rule="nonzero"/></g></svg>
