<svg height="36" viewBox="0 0 36 36" width="36" xmlns="http://www.w3.org/2000/svg"><g fill="none" fill-rule="evenodd"><path d="m4.95265116 0c-.52613953 0-.95265116.42107143-.95265116 1.23814286v33.81185634c0 .2217858.42651163.9500008.95265116.9500008h26.09469764c.5261396 0 .9526512-.728215.9526512-.9500008v-26.7069992c0-.44742857-.0605581-.59142857-.1673488-.6975l-7.5769303-7.48028571c-.1074418-.10542858-.2533023-.16521429-.4050232-.16521429z" fill="#e9e9e0" fill-rule="nonzero"/><path d="m11.8928571 8.35714286h-3.85714281c-.35485715 0-.64285715-.288-.64285715-.64285715 0-.35485714.288-.64285714.64285715-.64285714h3.85714281c.3548572 0 .6428572.288.6428572.64285714 0 .35485715-.288.64285715-.6428572.64285715zm3.8571429 12.85714284h-5.1428571c-.3548572 0-.64285719-.288-.64285719-.6428571 0-.3548572.28799999-.6428572.64285719-.6428572h5.1428571c.3548571 0 .6428571.288.6428571.6428572 0 .3548571-.288.6428571-.6428571.6428571zm12.2142857-9.6428571h-1.2857143c-.3548571 0-.6428571-.288-.6428571-.6428572 0-.3548571.288-.6428571.6428571-.6428571h1.2857143c.3548572 0 .6428572.288.6428572.6428571 0 .3548572-.288.6428572-.6428572.6428572zm-5.7857143 3.2142857h-14.14285711c-.35485715 0-.64285715-.288-.64285715-.6428572 0-.3548571.288-.6428571.64285715-.6428571h14.14285711c.3548572 0 .6428572.288.6428572.6428571 0 .3548572-.288.6428572-.6428572.6428572zm5.7857143 0h-3.8571428c-.3548572 0-.6428572-.288-.6428572-.6428572 0-.3548571.288-.6428571.6428572-.6428571h3.8571428c.3548572 0 .6428572.288.6428572.6428571 0 .3548572-.288.6428572-.6428572.6428572zm-17.3571428 3.2142857h-2.57142861c-.35485715 0-.64285715-.288-.64285715-.6428571 0-.3548572.288-.6428572.64285715-.6428572h2.57142861c.3548571 0 .6428571.288.6428571.6428572 0 .3548571-.288.6428571-.6428571.6428571zm9 0h-6.4285715c-.3548571 0-.6428571-.288-.6428571-.6428571 0-.3548572.288-.6428572.6428571-.6428572h6.4285715c.3548571 0 .6428571.288.6428571.6428572 0 .3548571-.288.6428571-.6428571.6428571zm8.3571428 0h-5.7857143c-.3548571 0-.6428571-.288-.6428571-.6428571 0-.3548572.288-.6428572.6428571-.6428572h5.7857143c.3548572 0 .6428572.288.6428572.6428572 0 .3548571-.288.6428571-.6428572.6428571zm-14.1428571-6.4285714h-5.78571431c-.35485715 0-.64285715-.288-.64285715-.6428572 0-.3548571.288-.6428571.64285715-.6428571h5.78571431c.3548571 0 .6428571.288.6428571.6428571 0 .3548572-.288.6428572-.6428571.6428572zm2.5714285 0c-.1671428 0-.3342857-.0707143-.4564285-.1864286-.1157143-.1221429-.1864286-.2892857-.1864286-.4564286 0-.1671428.0707143-.3342857.1864286-.4564285.2378571-.2378572.675-.2378572.9128571 0 .1157143.1221428.1864286.2892857.1864286.4564285 0 .1671429-.0707143.3342857-.1864286.4564286-.1221428.1157143-.2892857.1864286-.4564286.1864286zm7.7142858 0h-5.1428572c-.3548571 0-.6428571-.288-.6428571-.6428572 0-.3548571.288-.6428571.6428571-.6428571h5.1428572c.3548571 0 .6428571.288.6428571.6428571 0 .3548572-.288.6428572-.6428571.6428572zm-16.07142861 9.6428571c-.16714286 0-.33428572-.0707143-.45642858-.1864286-.11571428-.1221428-.18642857-.2892857-.18642857-.4564285 0-.1671429.07071429-.3342857.18642857-.4564286.23785715-.2378571.675-.2378571.91285715 0 .11571428.1221429.18642857.2828571.18642857.4564286 0 .1671428-.07071429.3342857-.18642857.4564285-.12214286.1157143-.28928572.1864286-.45642857.1864286z" fill="#8697cb" fill-rule="nonzero"/><path d="m24.2600002.17 7.5699997 7.4800001h-7.5699997z" fill="#d9d7ca"/><path d="m4.95265116 36c-.52613953 0-.95265116-.4238235-.95265116-.9466471v-10.0533529h28v10.0533529c0 .5228236-.4265116.9466471-.9526512.9466471z" fill="#0096e6" fill-rule="nonzero"/><path d="m5.72201446 26.8849611h2.23632813c1.96777343 0 2.94433591 1.1767578 2.94433591 3.3251953s-.98144529 3.3398438-2.94433591 3.3398438h-2.23632813zm1.00585938.913086v4.8339843h1.13769531c1.35253906 0 2.00195312-.7958984 2.00195312-2.4072265 0-1.616211-.65429687-2.4267578-2.00195312-2.4267578zm9.79492186 1.9580078c0-1.3916016-.7373047-2.0751953-1.7138672-2.0751953-.9814453 0-1.7138672.6835937-1.7138672 2.0751953v.9277344c0 1.3916015.7324219 2.0703125 1.7138672 2.0703125.9765625 0 1.7138672-.678711 1.7138672-2.0703125zm1.015625.9228515c0 1.8847657-1.0595703 3.0078125-2.7294922 3.0078125-1.6748047 0-2.7294922-1.1230468-2.7294922-3.0078125v-.9179687c0-1.8945313 1.0546875-3.0078125 2.7294922-3.0078125 1.6699219 0 2.7294922 1.1181641 2.7294922 3.0078125zm2.2802734-.8886718v.8886718c0 1.3232422.6054688 2.0703125 1.6748047 2.0703125.8398438 0 1.4160157-.4833984 1.4941407-1.1816406h.9863281v.0683594c-.0878906 1.1962891-1.1181641 2.0507812-2.4853516 2.0507812-1.7138672 0-2.6855469-1.1132812-2.6855469-3.0029296v-.9033204c0-1.8847656.991211-3.0273437 2.6855469-3.0273437 1.3720703 0 2.4023438.8789062 2.4853516 2.1337891v.0683593h-.9863281c-.078125-.7373047-.6738282-1.2695312-1.4941407-1.2695312-1.0498047 0-1.6748047.7763672-1.6748047 2.1044922zm10.4736329-2.9052735-2.1826172 3.3544922 2.1435547 3.3105469h-1.1865235l-1.586914-2.5h-.0488282l-1.5917968 2.5h-1.1181641l2.1386719-3.359375-2.1142578-3.3056641h1.2011718l1.5820313 2.5195313h.0488281l1.5673828-2.5195313z" fill="#fff"/></g></svg>
