<svg height="36" viewBox="0 0 36 36" width="36" xmlns="http://www.w3.org/2000/svg"><g fill="none" fill-rule="evenodd"><path d="m4.953 0c-.526 0-.953.421-.953 1.238v33.812c0 .222.427.95.953.95h26.094c.526 0 .953-.728.953-.95v-26.707c0-.447-.06-.591-.167-.697l-7.577-7.481a.58.58 0 0 0 -.406-.165z" fill="#e9e9e0" fill-rule="nonzero"/><path d="m24.2600002.17 7.5699997 7.4800001h-7.5699997z" fill="#d9d7ca"/><path d="m4.953 36a.95.95 0 0 1 -.953-.947v-10.053h28v10.053a.95.95 0 0 1 -.953.947z" fill="#91cda0" fill-rule="nonzero"/><path d="m15.444 27.172-2.183 3.355 2.144 3.31h-1.187l-1.587-2.5h-.048l-1.592 2.5h-1.118l2.138-3.359-2.114-3.306h1.201l1.582 2.52h.049l1.567-2.52zm5.024 5.723v.942h-3.998v-6.665h1.006v5.723h2.993zm.674-.8h.996c.117.58.694.976 1.543.976.899 0 1.436-.415 1.436-1.045 0-.508-.337-.786-1.07-.967l-1.128-.273c-1.005-.25-1.601-.85-1.601-1.792 0-1.172.986-1.968 2.368-1.968 1.372 0 2.26.781 2.354 1.802h-.992c-.112-.542-.615-.909-1.377-.909-.81 0-1.338.415-1.338 1.011 0 .44.328.737.928.88l1.118.273c1.143.278 1.748.815 1.748 1.845 0 1.226-.957 2.046-2.534 2.046-1.484 0-2.368-.815-2.45-1.88z" fill="#fff"/><path d="m15.107 10.286v-2.572h-7.714v14.143h21.214v-11.571zm-6.427-1.286h5.142v1.286h-5.142zm0 2.571h5.142v1.286h-5.142zm0 2.572h5.142v1.286h-5.142zm0 2.571h5.142v1.286h-5.142zm0 2.572h5.142v1.285h-5.142zm6.428 0h12.214v1.285h-12.215v-1.285zm0-2.572h12.214v1.286h-12.215v-1.286zm0-2.571h12.214v1.286h-12.215v-1.286zm0-2.572h12.214v1.286h-12.215v-1.286z" fill="#c8bdb8" fill-rule="nonzero"/></g></svg>
