<svg height="36" viewBox="0 0 36 36" width="36" xmlns="http://www.w3.org/2000/svg"><g fill="none" fill-rule="evenodd"><path d="m4.953 0c-.526 0-.953.421-.953 1.238v33.812c0 .222.427.95.953.95h26.094c.526 0 .953-.728.953-.95v-26.707c0-.447-.06-.591-.167-.697l-7.577-7.481a.58.58 0 0 0 -.406-.165z" fill="#e9e9e0" fill-rule="nonzero"/><path d="m24.2600002.17 7.5699997 7.4800001h-7.5699997z" fill="#d9d7ca"/><path d="m4.953 36a.95.95 0 0 1 -.953-.947v-10.053h28v10.053a.95.95 0 0 1 -.953.947z" fill="#13a085" fill-rule="nonzero"/><path d="m4 25h28v-7.8928571l-6.7857143-6.1071429-6.75 7.3928571-3.5247857-3.5247857-10.9395 9.3105z" fill="#26b99a" fill-rule="nonzero"/><path d="m7.775 33.833h-.908l-1.811-6.666h1.132l1.158 5.103h.053l1.275-5.103h.942l1.275 5.103h.053l1.158-5.103h1.132l-1.811 6.666h-.908l-1.348-4.971h-.044l-1.348 4.97zm10.64-.918v.918h-4.097v-6.666h4.097v.918h-3.096v1.92h2.92v.878h-2.92v2.032zm1.572.918v-6.666h2.593c1.152 0 1.89.625 1.89 1.641 0 .781-.415 1.28-1.09 1.465v.049c.865.102 1.46.669 1.46 1.636 0 1.181-.917 1.875-2.328 1.875zm1.001-5.801v1.958h.972c1.045 0 1.509-.337 1.509-.996 0-.6-.4-.962-1.08-.962h-1.4zm0 2.783v2.153h1.099c1.226 0 1.724-.332 1.724-1.045 0-.693-.479-1.108-1.333-1.108zm7.788-3.648c1.333 0 2.168.909 2.168 2.149s-.84 2.134-2.173 2.134h-1.494v2.383h-1.006v-6.666zm1.138 2.149c0-.796-.464-1.245-1.26-1.245h-1.377v2.49h1.377c.796 0 1.26-.459 1.26-1.245z" fill="#fff"/><path d="m14.491 9.277a2.938 2.938 0 1 1 -5.875 0 2.938 2.938 0 0 1 5.875 0" fill="#f3d55b" fill-rule="nonzero"/></g></svg>
