<svg height="36" viewBox="0 0 36 36" width="36" xmlns="http://www.w3.org/2000/svg"><g fill="none" fill-rule="evenodd"><path d="m4.953 0c-.526 0-.953.421-.953 1.238v33.812c0 .222.427.95.953.95h26.094c.526 0 .953-.728.953-.95v-26.707c0-.447-.06-.591-.167-.697l-7.577-7.481a.58.58 0 0 0 -.406-.165z" fill="#e9e9e0" fill-rule="nonzero"/><path d="m24.2600002.17 7.5699997 7.4800001h-7.5699997z" fill="#d9d7ca"/><path d="m4.953 36a.95.95 0 0 1 -.953-.947v-10.053h28v10.053a.95.95 0 0 1 -.953.947z" fill="#ce3c3b" fill-rule="nonzero"/><path d="m11.225 33.833h-1.005v-6.666h4.043v.923h-3.037v2.066h2.778v.908h-2.778v2.769zm8.345-.943v.943h-4v-6.666h1.007v5.723zm1.509.943h-1.03l2.324-6.666h1.088l2.32 6.666h-1.06l-.62-1.86h-2.397zm1.845-5.528h-.044l-.937 2.837h1.919z" fill="#fff"/><g fill="#c8bdb8" fill-rule="nonzero"><path d="m17.063 10.286a1.285 1.285 0 1 1 -2.571 0 1.285 1.285 0 0 1 2.57 0"/><path d="m21.874 8.954-.454-.454a7.022 7.022 0 0 0 -5-2.071 7.024 7.024 0 0 0 -5 2.07 7.024 7.024 0 0 0 -2.072 5.001c0 1.889.736 3.665 2.071 5a7.024 7.024 0 0 0 5 2.071c1.89 0 3.666-.735 5-2.07l.455-.455-4.544-4.546 4.545-4.546zm-1.843 9.067a5.74 5.74 0 0 1 -3.611 1.265 5.748 5.748 0 0 1 -4.092-1.695 5.745 5.745 0 0 1 -1.694-4.091c0-1.545.601-2.998 1.694-4.091a5.748 5.748 0 0 1 4.092-1.695 5.74 5.74 0 0 1 3.61 1.266l-4.52 4.521 4.52 4.52z"/><path d="m22.205 12.857h-1.928a.642.642 0 1 0 0 1.286h1.928a.642.642 0 1 0 0-1.286m3.858 0h-1.286a.642.642 0 1 0 0 1.286h1.285a.642.642 0 1 0 0-1.286"/></g></g></svg>
