<svg width="36" height="36" viewBox="0 0 36 36" xmlns="http://www.w3.org/2000/svg"><title>file_mp4</title><g fill="none" fill-rule="evenodd"><path d="M4.953 0C4.427 0 4 .421 4 1.238V35.05c0 .222.427.95.953.95h26.094c.526 0 .953-.728.953-.95V8.343c0-.447-.06-.591-.167-.697L24.256.165A.58.58 0 0 0 23.85 0H4.953z" fill="#E9E9E0" fill-rule="nonzero"/><path d="M4.953 36A.95.95 0 0 1 4 35.053V25h28v10.053a.95.95 0 0 1-.953.947H4.953z" fill="#FF0201" fill-rule="nonzero"/><path d="M9.59 33.833H8.68v-6.666h1.001l2.1 4.771h.039l2.1-4.77h.996v6.665h-.914v-4.668h-.053l-1.768 3.974h-.766l-1.778-3.974H9.59v4.668zm9.648-6.666c1.333 0 2.168.909 2.168 2.149s-.84 2.134-2.173 2.134h-1.494v2.383h-1.006v-6.666h2.505zm1.137 2.149c0-.796-.463-1.245-1.26-1.245H17.74v2.49h1.377c.796 0 1.26-.459 1.26-1.245zm4.62-2.149h1.47v4.454h.854v.903h-.855v1.309h-.952v-1.31h-3.237v-.917c.82-1.484 1.792-2.959 2.72-4.439zm-1.753 4.454h2.27v-3.584h-.054a60.743 60.743 0 0 0-2.216 3.54v.044z" fill="#FFF"/><path d="M15.134 18a.645.645 0 0 1-.643-.643v-9a.644.644 0 0 1 .988-.542l7.072 4.5a.644.644 0 0 1 0 1.085l-7.072 4.5a.647.647 0 0 1-.345.1zm.643-8.472v6.658l5.23-3.329-5.23-3.33z" fill="#C8BDB8" fill-rule="nonzero"/><path d="M17.705 22.5c-5.317 0-9.642-4.326-9.642-9.643 0-5.317 4.325-9.643 9.642-9.643 5.317 0 9.643 4.326 9.643 9.643 0 5.317-4.326 9.643-9.643 9.643zm0-18c-4.608 0-8.357 3.75-8.357 8.357 0 4.608 3.75 8.357 8.357 8.357 4.609 0 8.358-3.749 8.358-8.357 0-4.608-3.749-8.357-8.358-8.357z" fill="#C8BDB8" fill-rule="nonzero"/><path fill="#D9D7CA" d="M24.2600002 0.170000002L31.8299999 7.6500001 24.2600002 7.6500001z"/></g></svg>