<svg height="36" viewBox="0 0 36 36" width="36" xmlns="http://www.w3.org/2000/svg"><g fill="none" fill-rule="evenodd"><g fill-rule="nonzero"><path d="m4.95265116 0c-.52613953 0-.95265116.42107143-.95265116 1.23814286v33.81185634c0 .2217858.42651163.9500008.95265116.9500008h26.09469764c.5261396 0 .9526512-.728215.9526512-.9500008v-26.7069992c0-.44742857-.0605581-.59142857-.1673488-.6975l-7.5769303-7.48028571c-.1074418-.10542858-.2533023-.16521429-.4050232-.16521429z" fill="#e9e9e0"/><path d="m14.6481633 23.5346939.5583673.1910204c.1469388.0440816.3085714.0734694.4702041.0734694.235102 0 .4555102-.0587755.6612245-.1616327.352653-.1763265.6171428-.4848979.7346939-.8522449l.9257142-2.8212245c.2057143-.6465306-.0440816-1.3371428-.6171428-1.7044898-.1322449-.0881632-.3232653-.0440816-.4114286.0881633-.0881632.1322449-.0440816.3232653.0881633.4114286.3379592.2204081.4995918.6465306.3673469 1.0285714l-.9257143 2.8212245c-.0734694.2204082-.235102.4114286-.4408163.5142857s-.4555102.1322449-.6759184.0440816l-.5583673-.1910204c-.4702041-.1469387-.72-.6612245-.5730612-1.1314285l.9257143-2.8212245c.1322449-.3820408.4995918-.6465306.9110204-.6171429.1616326.0146939.3085714-.117551.3085714-.2791837.0146939-.1616326-.117551-.3085714-.2791837-.3085714-.6759183-.0440816-1.2930612.3673469-1.4987755 1.0138776l-.9257143 2.8212245c-.2497959.7934693.1763266 1.6310204.9551021 1.8808163z" fill="#ada29e"/><path d="m22.2742857 12.4995918c-.5730612-.5730612-1.5134694-.5730612-2.1012245 0l-2.1012245 2.1012245c-.470204.484898-.5730612 1.2195919-.2204081 1.807347.0881632.1469387.2644898.1910204.3967347.1028571.1469387-.0881633.1910204-.2644898.1028571-.3967347-.2057143-.352653-.1469388-.7934694.1322449-1.0873469l2.1012245-2.1012245c.3526531-.3526531.9110204-.3526531 1.2636735 0l.4261224.4261224c.1763265.1763266.2644898.3967347.2644898.6318368 0 .235102-.0881633.4702041-.2644898.6318367l-2.1012245 2.1012245c-.2938775.2938775-.7346939.3379592-1.0873469.1322449-.1469388-.0881633-.3232653-.0293878-.3967347.1028571-.0881633.1469388-.0293878.3232653.1028571.3967347.2351021.1322449.4995919.2057143.7493878.2057143.3820408 0 .7640816-.1469388 1.0432653-.4408163l2.1012245-2.1012245c.2791837-.2791837.4408163-.6465306.4408163-1.0432653s-.1616326-.7640816-.4408163-1.0432653z" fill="#ada29e"/><path d="m13.7371429 13.1167347c-.1175511.117551-.1175511.2938775 0 .4114286l1.9836734 1.9836734c.0587755.0587755.1322449.0881633.2057143.0881633s.1469388-.0293878.2057143-.0881633c.117551-.117551.117551-.2938775 0-.4114285l-1.9836735-1.9836735c-.117551-.117551-.2938775-.117551-.4114285 0z" fill="#ada29e"/><path d="m16.5877551 12.7346939v1.9102041c0 .1616326.1322449.2938775.2938776.2938775.1616326 0 .2938775-.1322449.2938775-.2938775v-1.9102041c0-.1616327-.1322449-.2938776-.2938775-.2938776-.1616327 0-.2938776.1322449-.2938776.2938776z" fill="#ada29e"/><path d="m15.5591837 16.1142857c0-.1616326-.1322449-.2938775-.2938776-.2938775h-1.9102041c-.1616326 0-.2938775.1322449-.2938775.2938775 0 .1616327.1322449.2938776.2938775.2938776h1.9102041c.1616327 0 .2938776-.1322449.2938776-.2938776z" fill="#ada29e"/></g><path d="m24.2600002.17 7.5699997 7.4800001h-7.5699997z" fill="#d9d7ca"/></g></svg>
