<svg width="36" height="36" viewBox="0 0 36 36" xmlns="http://www.w3.org/2000/svg"><title>file_aac</title><g fill="none" fill-rule="evenodd"><path d="M4.953 0C4.427 0 4 .421 4 1.238V35.05c0 .222.427.95.953.95h26.094c.526 0 .953-.728.953-.95V8.343c0-.447-.06-.591-.167-.697L24.256.165A.58.58 0 0 0 23.85 0H4.953z" fill="#E9E9E0" fill-rule="nonzero"/><path fill="#D9D7CA" d="M24.2600002 0.170000002L31.8299999 7.6500001 24.2600002 7.6500001z"/><path d="M4.953 36A.95.95 0 0 1 4 35.053V25h28v10.053a.95.95 0 0 1-.953.947H4.953z" fill="#7D6599" fill-rule="nonzero"/><path d="M9.487 33.55H8.354l2.295-6.665h1.235l2.295 6.665h-1.172l-.59-1.807h-2.34l-.59 1.807zm1.787-5.479h-.05l-.897 2.784h1.84l-.893-2.784zm4.487 5.479h-1.133l2.295-6.665h1.236l2.294 6.665h-1.171l-.591-1.807h-2.34l-.59 1.807zm1.787-5.479H17.5l-.898 2.784h1.84l-.893-2.784zm4.863 1.729v.87c0 1.288.586 2.01 1.607 2.01.815 0 1.367-.483 1.44-1.176h1.08v.093c-.084 1.225-1.128 2.085-2.525 2.085-1.743 0-2.725-1.123-2.725-3.013v-.879c0-1.885 1.001-3.037 2.725-3.037 1.401 0 2.446.889 2.524 2.168v.088h-1.079c-.073-.728-.64-1.255-1.44-1.255-1.01 0-1.607.752-1.607 2.046z" fill="#FFF"/><path d="M23.394 9.634c-.364-.512-.835-.992-1.483-1.51-2.516-2.014-3.058-4.036-3.126-4.332v-.578a.642.642 0 1 0-1.286 0v11.837h-2.382c-2.496 0-4.046 1.26-4.046 3.29 0 2.227 1.44 3.667 3.668 3.667a4.05 4.05 0 0 0 4.046-4.046v-7.375l.192.156c.218.216.553.463.978.775 1.49 1.099 3.986 2.936 3.358 5.01a.643.643 0 0 0 1.23.373c1.046-3.456-.271-6.037-1.149-7.267zM17.5 17.962a2.763 2.763 0 0 1-2.76 2.76c-1.514 0-2.382-.867-2.382-2.382 0-1.656 1.5-2.004 2.76-2.004h2.382v1.626zm3.218-7.478c-.367-.272-.685-.505-.881-.695l-1.05-.862V6.695c.53.754 1.277 1.597 2.321 2.432.552.443.946.84 1.24 1.254.46.644.92 1.503 1.15 2.556-.853-1.034-1.983-1.866-2.78-2.453z" fill="#C8BDB8" fill-rule="nonzero"/></g></svg>