<svg width="36" height="36" viewBox="0 0 36 36" xmlns="http://www.w3.org/2000/svg"><g fill="none" fill-rule="evenodd"><path d="M4.953 0C4.427 0 4 .421 4 1.238V35.05c0 .222.427.95.953.95h26.094c.526 0 .953-.728.953-.95V8.343c0-.447-.06-.591-.167-.697L24.256.165A.58.58 0 0 0 23.85 0H4.953z" fill="#E9E9E0" fill-rule="nonzero"/><path fill="#D9D7CA" d="M24.2600002 0.170000002L31.8299999 7.6500001 24.2600002 7.6500001z"/><path d="M4.953 36A.95.95 0 0 1 4 35.053V25h28v10.053a.95.95 0 0 1-.953.947H4.953z" fill="#FF5828" fill-rule="nonzero"/><path d="M14.778 14.667v4.444a.889.889 0 1 1-1.778 0v-5.333a.886.886 0 0 1 .889-.89h6.889a1.556 1.556 0 0 0 0-3.11h-6.89a.889.889 0 1 1 0-1.778h7.334a3.333 3.333 0 1 1 0 6.667H14.778z" fill="#C8BDB8"/><path d="M9.155 26.885h2.3c1.987 0 2.954 1.191 2.954 3.32 0 2.139-.977 3.345-2.955 3.345h-2.3v-6.665zm1.108.972v4.721h1.07c1.318 0 1.938-.78 1.938-2.353 0-1.577-.625-2.368-1.939-2.368h-1.069zm8.11-.972c1.368 0 2.193.933 2.193 2.173 0 1.25-.835 2.163-2.202 2.163h-1.44v2.329h-1.11v-6.665h2.56zm1.06 2.173c0-.777-.454-1.22-1.226-1.22h-1.289v2.44h1.29c.77 0 1.225-.449 1.225-1.22zm1.929 2.724h1.089c.107.557.659.948 1.484.948.874 0 1.382-.4 1.382-1.001 0-.493-.337-.757-1.06-.933l-1.094-.264c-1.015-.239-1.63-.84-1.63-1.806 0-1.187.996-1.988 2.407-1.988 1.42 0 2.31.811 2.392 1.832h-1.074c-.107-.518-.586-.884-1.328-.884-.786 0-1.284.4-1.284.967 0 .43.327.712.923.85l1.089.263c1.123.263 1.767.796 1.767 1.855 0 1.23-.957 2.06-2.573 2.06-1.553 0-2.412-.839-2.49-1.899z" fill="#FFF" fill-rule="nonzero"/></g></svg>