<svg height="36" viewBox="0 0 36 36" width="36" xmlns="http://www.w3.org/2000/svg"><g fill="none" fill-rule="evenodd"><path d="m4.95265116 0c-.52613953 0-.95265116.42107143-.95265116 1.23814286v33.81185634c0 .2217858.42651163.9500008.95265116.9500008h26.09469764c.5261396 0 .9526512-.728215.9526512-.9500008v-26.7069992c0-.44742857-.0605581-.59142857-.1673488-.6975l-7.5769303-7.48028571c-.1074418-.10542858-.2533023-.16521429-.4050232-.16521429z" fill="#e9e9e0" fill-rule="nonzero"/><path d="m24.2600002.17 7.5699997 7.4800001h-7.5699997z" fill="#d9d7ca"/><path d="m4.95265116 36c-.52613953 0-.95265116-.4238235-.95265116-.9466471v-10.0533529h28v10.0533529c0 .5228236-.4265116.9466471-.9526512.9466471z" fill="#91cda0" fill-rule="nonzero"/><path d="m11.9353934 26.8849611-2.18261722 3.3544922 2.14355472 3.3105469h-1.1865235l-1.58691403-2.5h-.04882813l-1.59179687 2.5h-1.11816407l2.13867188-3.359375-2.11425781-3.3056641h1.20117187l1.58203125 2.5195313h.04882813l1.56738278-2.5195313zm5.024414 5.7226563v.9423828h-3.9990234v-6.6650391h1.0058594v5.7226563zm.6738282-.8007813h.9960937c.1171875.5810547.6933594.9765625 1.5429688.9765625.8984375 0 1.4355468-.415039 1.4355468-1.0449218 0-.5078125-.336914-.7861329-1.0693359-.9667969l-1.1279297-.2734375c-1.0058594-.2490235-1.6015625-.8496094-1.6015625-1.7919922 0-1.171875.9863281-1.9677734 2.3681641-1.9677734 1.3720703 0 2.2607422.78125 2.3535156 1.8017578h-.9912109c-.1123047-.5419922-.6152344-.9082032-1.3769532-.9082032-.8105468 0-1.3378906.4150391-1.3378906 1.0107422 0 .4394532.3271484.7373047.9277344.8789063l1.118164.2734375c1.1425782.2783203 1.7480469.8154297 1.7480469 1.8457031 0 1.2255859-.9570312 2.0458984-2.5341797 2.0458984-1.484375 0-2.368164-.8154296-2.4511718-1.8798828zm11.2646484-4.921875-2.1826172 3.3544922 2.1435547 3.3105469h-1.1865234l-1.5869141-2.5h-.0488281l-1.5917969 2.5h-1.1181641l2.1386719-3.359375-2.1142578-3.3056641h1.2011719l1.5820312 2.5195313h.0488281l1.5673829-2.5195313z" fill="#fff"/><path d="m15.1071429 10.2857143v-2.57142859h-7.71428576v14.14285719h21.21428576v-11.5714286zm-6.42857147-1.2857143h5.14285717v1.2857143h-5.14285717zm0 2.5714286h5.14285717v1.2857143h-5.14285717zm0 2.5714285h5.14285717v1.2857143h-5.14285717zm0 2.5714286h5.14285717v1.2857143h-5.14285717zm0 2.5714286h5.14285717v1.2857143h-5.14285717zm6.42857147 0h12.2142857v1.2857143h-12.2142857zm0-2.5714286h12.2142857v1.2857143h-12.2142857zm0-2.5714286h12.2142857v1.2857143h-12.2142857zm0-2.5714285h12.2142857v1.2857143h-12.2142857z" fill="#c8bdb8" fill-rule="nonzero"/></g></svg>
