<svg height="36" viewBox="0 0 36 36" width="36" xmlns="http://www.w3.org/2000/svg"><g fill="none" fill-rule="evenodd"><path d="m4.953 0c-.526 0-.953.421-.953 1.238v33.812c0 .222.427.95.953.95h26.094c.526 0 .953-.728.953-.95v-26.707c0-.447-.06-.591-.167-.697l-7.577-7.481a.58.58 0 0 0 -.406-.165z" fill="#e9e9e0" fill-rule="nonzero"/><path d="m24.2600002.17 7.5699997 7.4800001h-7.5699997z" fill="#d9d7ca"/><path d="m4.953 36a.95.95 0 0 1 -.953-.947v-10.053h28v10.053a.95.95 0 0 1 -.953.947z" fill="#e96360" fill-rule="nonzero"/><path d="m9.526 27.167h2.236c1.968 0 2.945 1.177 2.945 3.326 0 2.148-.982 3.34-2.945 3.34h-2.236zm1.006.914v4.834h1.137c1.353 0 2.002-.796 2.002-2.408 0-1.616-.654-2.426-2.002-2.426zm5.615 5.752v-6.666h2.593c1.152 0 1.89.625 1.89 1.641 0 .781-.416 1.28-1.09 1.465v.049c.865.102 1.46.669 1.46 1.636 0 1.181-.917 1.875-2.329 1.875zm1-5.801v1.958h.973c1.045 0 1.508-.337 1.508-.996 0-.6-.4-.962-1.079-.962h-1.401zm0 2.783v2.153h1.1c1.225 0 1.723-.332 1.723-1.045 0-.693-.478-1.108-1.333-1.108zm6.29 3.018h-1.006v-6.666h4.043v.923h-3.037v2.066h2.778v.908h-2.778z" fill="#fff"/><path d="m15.107 10.286v-2.572h-7.714v14.143h21.214v-11.571zm-6.427-1.286h5.142v1.286h-5.142zm0 2.571h5.142v1.286h-5.142zm0 2.572h5.142v1.286h-5.142zm0 2.571h5.142v1.286h-5.142zm0 2.572h5.142v1.285h-5.142zm6.428 0h12.214v1.285h-12.215v-1.285zm0-2.572h12.214v1.286h-12.215v-1.286zm0-2.571h12.214v1.286h-12.215v-1.286zm0-2.572h12.214v1.286h-12.215v-1.286z" fill="#c8bdb8" fill-rule="nonzero"/></g></svg>
