<svg width="36" height="36" viewBox="0 0 36 36" xmlns="http://www.w3.org/2000/svg"><path d="M2.564 4h7.17l4.533 3.2h19.17c.89 0 1.214.093 1.54.267.326.174.582.43.756.756.174.326.267.65.267 1.54v19.673c0 .892-.093 1.215-.267 1.54-.174.327-.43.583-.756.757-.326.174-.65.267-1.54.267H2.563c-.892 0-1.215-.093-1.54-.267a1.817 1.817 0 0 1-.757-.756C.093 30.65 0 30.327 0 29.437V6.563c0-.892.093-1.215.267-1.54.174-.327.43-.583.756-.757.326-.174.65-.267 1.54-.267z" fill="#91CEFF" fill-rule="evenodd"/></svg>
