<svg height="36" viewBox="0 0 36 36" width="36" xmlns="http://www.w3.org/2000/svg"><g fill="none" fill-rule="evenodd"><path d="m4.953 0c-.526 0-.953.421-.953 1.238v33.812c0 .222.427.95.953.95h26.094c.526 0 .953-.728.953-.95v-26.707c0-.447-.06-.591-.167-.697l-7.577-7.481a.58.58 0 0 0 -.406-.165z" fill="#e9e9e0" fill-rule="nonzero"/><path d="m24.2600002.17 7.5699997 7.4800001h-7.5699997z" fill="#d9d7ca"/><path d="m4.953 36a.95.95 0 0 1 -.953-.947v-10.053h28v10.053a.95.95 0 0 1 -.953.947z" fill="#0096e6" fill-rule="nonzero"/><path d="m10.43 30.078v.888c0 1.324.605 2.07 1.674 2.07.84 0 1.416-.483 1.494-1.181h.986v.068c-.087 1.197-1.118 2.051-2.485 2.051-1.714 0-2.685-1.113-2.685-3.003v-.903c0-1.885.99-3.027 2.685-3.027 1.372 0 2.402.878 2.485 2.133v.069h-.986c-.078-.738-.674-1.27-1.494-1.27-1.05 0-1.675.777-1.675 2.105zm5.19 2.016h.996c.117.581.693.977 1.543.977.898 0 1.435-.415 1.435-1.045 0-.508-.337-.786-1.07-.967l-1.127-.273c-1.006-.25-1.602-.85-1.602-1.792 0-1.172.987-1.968 2.369-1.968 1.372 0 2.26.781 2.353 1.802h-.991c-.112-.542-.615-.909-1.377-.909-.81 0-1.338.415-1.338 1.011 0 .44.327.737.928.88l1.118.273c1.143.278 1.748.815 1.748 1.845 0 1.226-.957 2.046-2.534 2.046-1.485 0-2.368-.815-2.451-1.88zm5.981 0h.996c.117.581.694.977 1.543.977.899 0 1.436-.415 1.436-1.045 0-.508-.337-.786-1.07-.967l-1.128-.273c-1.005-.25-1.601-.85-1.601-1.792 0-1.172.986-1.968 2.368-1.968 1.372 0 2.26.781 2.354 1.802h-.992c-.112-.542-.615-.909-1.377-.909-.81 0-1.338.415-1.338 1.011 0 .44.328.737.928.88l1.118.273c1.143.278 1.748.815 1.748 1.845 0 1.226-.957 2.046-2.534 2.046-1.484 0-2.368-.815-2.45-1.88z" fill="#fff"/><path d="m12.857 12.214c0 .772-.348 1.457-.888 1.929.54.472.888 1.157.888 1.928v2.572c0 .354.288.643.643.643a.643.643 0 1 1 0 1.285 1.93 1.93 0 0 1 -1.929-1.928v-2.573c0-.709-.576-1.285-1.285-1.285a.643.643 0 1 1 0-1.286c.709 0 1.285-.577 1.285-1.286v-2.57a1.93 1.93 0 0 1 1.929-1.929.643.643 0 1 1 0 1.286.644.644 0 0 0 -.643.643zm12.857 1.286a.643.643 0 1 1 0 1.286c-.708 0-1.285.576-1.285 1.285v2.572a1.93 1.93 0 0 1 -1.929 1.927.643.643 0 1 1 0-1.285.644.644 0 0 0 .643-.643v-2.572c0-.771.348-1.456.888-1.928a2.555 2.555 0 0 1 -.888-1.929v-2.57a.644.644 0 0 0 -.643-.643.643.643 0 1 1 0-1.286 1.93 1.93 0 0 1 1.929 1.929v2.571c0 .71.577 1.286 1.285 1.286z" fill="#0096e6" fill-rule="nonzero"/></g></svg>
