<svg height="36" viewBox="0 0 36 36" width="36" xmlns="http://www.w3.org/2000/svg"><g fill="none" transform="translate(13 10)"><path d="m22.5 12c0 .8291424-.6708576 1.5-1.5 1.5h-20c-.82914237 0-1.5-.6708576-1.5-1.5v-11c0-.82914237.67085763-1.5 1.5-1.5h20c.8291424 0 1.5.67085763 1.5 1.5z" fill="#4bae50" opacity=".9" stroke="#fff"/><path d="m13.1875 4.9375h-.625v-1.25c0-.86294492-.6995551-1.5625-1.5625-1.5625s-1.5625.69955508-1.5625 1.5625v1.25h-.625v-1.25c0-1.20812289.97937711-2.1875 2.1875-2.1875 1.2081229 0 2.1875.97937711 2.1875 2.1875zm1.25.625c.345178 0 .625.27982203.625.625v4.6875c0 .345178-.279822.625-.625.625h-6.875c-.34517797 0-.625-.279822-.625-.625v-4.6875c0-.34517797.27982203-.625.625-.625zm-3.125 3.705625c.6094709-.1573647 1.0068516-.74337085.9275371-1.36781266s-.6105783-1.09249464-1.2400371-1.09249464-1.16072261.46805283-1.24003712 1.09249464.31806622 1.21044796.92753712 1.36781266v.981875h.625z" fill="#fff"/></g></svg>