<svg height="36" viewBox="0 0 36 36" width="36" xmlns="http://www.w3.org/2000/svg"><g fill="none" fill-rule="evenodd"><path d="m4.953 0c-.526 0-.953.421-.953 1.238v33.812c0 .222.427.95.953.95h26.094c.526 0 .953-.728.953-.95v-26.707c0-.447-.06-.591-.167-.697l-7.577-7.481a.58.58 0 0 0 -.406-.165z" fill="#e9e9e0" fill-rule="nonzero"/><path d="m24.2600002.17 7.5699997 7.4800001h-7.5699997z" fill="#d9d7ca"/><g fill-rule="nonzero"><path d="m4.953 36a.95.95 0 0 1 -.953-.947v-10.053h28v10.053a.95.95 0 0 1 -.953.947z" fill="#0f8888"/><path d="m6.91964286 8.35714286h9.64285714v9.68464284h-9.64285714z" fill="#c8bdb8"/><path d="m21.0625 9h1.2857143v4.5h-1.2857143z" fill="#ada29e"/><path d="m21.0625 18.6428571h1.2857143v4.5h-1.2857143z" fill="#ada29e"/><path d="m18.491 12.857h6.429v6.429h-6.43v-6.429zm1.286 5.143h3.857v-3.857h-3.857z" fill="#ada29e"/><path d="m24.2767857 15.4285714h4.5v1.2857143h-4.5z" fill="#ada29e"/><path d="m14.6339286 15.4285714h4.5v1.2857143h-4.5z" fill="#ada29e"/></g><path d="m9.29 30.07v.889c0 1.323.605 2.07 1.674 2.07.84 0 1.416-.483 1.494-1.181h.986v.068c-.088 1.196-1.118 2.05-2.485 2.05-1.714 0-2.686-1.112-2.686-3.002v-.903c0-1.885.992-3.028 2.686-3.028 1.372 0 2.402.88 2.485 2.134v.068h-.986c-.078-.737-.674-1.27-1.494-1.27-1.05 0-1.675.777-1.675 2.105zm10.605-1.01h-.997c-.166-.664-.712-1.094-1.508-1.094-1.07 0-1.7.766-1.7 2.08v.869c0 1.309.61 2.12 1.729 2.12 1.025 0 1.548-.577 1.548-1.339v-.537h-1.607v-.86h2.578v1.353c0 1.29-.878 2.315-2.52 2.315-1.772 0-2.738-1.182-2.738-3.047v-.884c0-1.821 1.02-3.003 2.73-3.003 1.4 0 2.328.87 2.485 2.027zm2.504 4.77h-.908v-6.665h1.001l2.1 4.77h.039l2.1-4.77h.996v6.665h-.914v-4.668h-.053l-1.768 3.975h-.766l-1.778-3.975h-.048v4.668z" fill="#fff"/></g></svg>
