<svg height="36" viewBox="0 0 36 36" width="36" xmlns="http://www.w3.org/2000/svg"><g fill="none" fill-rule="evenodd"><path d="m4.953 0c-.526 0-.953.421-.953 1.238v33.812c0 .222.427.95.953.95h26.094c.526 0 .953-.728.953-.95v-26.707c0-.447-.06-.591-.167-.697l-7.577-7.481a.58.58 0 0 0 -.406-.165z" fill="#e9e9e0" fill-rule="nonzero"/><path d="m24.2600002.17 7.5699997 7.4800001h-7.5699997z" fill="#d9d7ca"/><path d="m4.953 36a.95.95 0 0 1 -.953-.947v-10.053h28v10.053a.95.95 0 0 1 -.953.947z" fill="#ec6630" fill-rule="nonzero"/><path d="m10.952 33.833h-1.006v-2.964h-3.174v2.964h-1.006v-6.666h1.006v2.774h3.174v-2.774h1.006zm4.111 0h-1.006v-5.738h-1.977v-.928h4.96v.928h-1.977zm4.028 0h-.908v-6.666h1.001l2.1 4.771h.039l2.1-4.77h.995v6.665h-.913v-4.668h-.053l-1.768 3.974h-.767l-1.777-3.974h-.049zm11.143-.943v.943h-4v-6.666h1.007v5.723z" fill="#fff"/><path d="m14.597 10.474a.642.642 0 0 1 0 .91l-3.402 3.402 3.402 3.402a.642.642 0 1 1 -.909.91l-3.857-3.858a.642.642 0 0 1 0-.909l3.857-3.857a.642.642 0 0 1 .91 0zm11.572 3.857a.642.642 0 0 1 0 .91l-3.857 3.856a.641.641 0 0 1 -.91 0 .642.642 0 0 1 0-.909l3.403-3.402-3.402-3.403a.642.642 0 1 1 .909-.909z" fill="#ec6630" fill-rule="nonzero"/></g></svg>
