<svg height="36" viewBox="0 0 36 36" width="36" xmlns="http://www.w3.org/2000/svg"><g fill="none" fill-rule="evenodd"><path d="m4.953 0c-.526 0-.953.421-.953 1.238v33.812c0 .222.427.95.953.95h26.094c.526 0 .953-.728.953-.95v-26.707c0-.447-.06-.591-.167-.697l-7.577-7.481a.58.58 0 0 0 -.406-.165z" fill="#e9e9e0" fill-rule="nonzero"/><path d="m24.2600002.17 7.5699997 7.4800001h-7.5699997z" fill="#d9d7ca"/><path d="m4.953 36a.95.95 0 0 1 -.953-.947v-10.053h28v10.053a.95.95 0 0 1 -.953.947z" fill="#f7712e" fill-rule="nonzero"/><path d="m12.414 27.167c1.333 0 2.168.909 2.168 2.149s-.84 2.134-2.173 2.134h-1.494v2.383h-1.006v-6.666zm1.138 2.149c0-.796-.464-1.245-1.26-1.245h-1.377v2.49h1.377c.796 0 1.26-.459 1.26-1.245zm4.81-2.149c1.332 0 2.167.909 2.167 2.149s-.84 2.134-2.173 2.134h-1.494v2.383h-1.006v-6.666h2.505zm1.137 2.149c0-.796-.464-1.245-1.26-1.245h-1.377v2.49h1.377c.796 0 1.26-.459 1.26-1.245zm4.614 4.517h-1.006v-5.738h-1.977v-.928h4.96v.928h-1.977z" fill="#fff"/><g fill-rule="nonzero"><path d="m9.348 9h15.429v10.286h-15.429zm1.286 9h12.856v-7.714h-12.856z" fill="#c8bdb8"/><path d="m12.562 22.5a.642.642 0 0 1 -.55-.974l1.928-3.214a.642.642 0 1 1 1.102.662l-1.929 3.214a.642.642 0 0 1 -.551.312m9.001 0a.642.642 0 0 1 -.551-.312l-1.929-3.214a.642.642 0 1 1 1.102-.662l1.928 3.214a.642.642 0 0 1 -.55.974m-4.5-12.214a.643.643 0 0 1 -.643-.643v-1.929a.643.643 0 1 1 1.285 0v1.929a.643.643 0 0 1 -.642.643" fill="#c8bdb8"/><path d="m10.6339286 10.2857143h12.8571428v7.7142857h-12.8571428z" fill="#d3ccc9"/></g></g></svg>
