<svg height="36" viewBox="0 0 36 36" width="36" xmlns="http://www.w3.org/2000/svg"><g fill="none" fill-rule="evenodd"><path d="m4.953 0c-.526 0-.953.421-.953 1.238v33.812c0 .222.427.95.953.95h26.094c.526 0 .953-.728.953-.95v-26.707c0-.447-.06-.591-.167-.697l-7.577-7.481a.58.58 0 0 0 -.406-.165z" fill="#e9e9e0" fill-rule="nonzero"/><path d="m24.2600002.17 7.5699997 7.4800001h-7.5699997z" fill="#d9d7ca"/><path d="m4.953 36a.95.95 0 0 1 -.953-.947v-10.053h28v10.053a.95.95 0 0 1 -.953.947z" fill="#9777a8" fill-rule="nonzero"/><path d="m14.292 32.915v.918h-4.097v-6.666h4.097v.918h-3.096v1.92h2.92v.878h-2.92v2.032zm6.391-5.748-2.183 3.355 2.144 3.31h-1.186l-1.587-2.5h-.05l-1.591 2.5h-1.118l2.138-3.359-2.114-3.306h1.201l1.582 2.52h.05l1.567-2.52zm5.122 5.748v.918h-4.097v-6.666h4.097v.918h-3.095v1.92h2.92v.878h-2.92v2.032h3.096z" fill="#fff"/><path d="m25.392 20.572a.644.644 0 0 1 -.613-.452l-3.214-10.286a.644.644 0 0 1 1.227-.383l3.215 10.286a.644.644 0 0 1 -.615.835zm-6.106-7.072a.965.965 0 1 1 0-1.93.965.965 0 0 1 0 1.93zm0 4.5a.965.965 0 1 1 0-1.93.965.965 0 0 1 0 1.93zm-3.536 1.286h-1.286a4.505 4.505 0 0 1 -4.5-4.5c0-2.482 2.019-4.5 4.5-4.5h1.286a.643.643 0 0 1 0 1.285h-1.286a3.218 3.218 0 0 0 -3.214 3.215 3.218 3.218 0 0 0 3.214 3.214h1.286a.643.643 0 0 1 0 1.286z" fill="#9777a8" fill-rule="nonzero"/></g></svg>
