<svg height="36" viewBox="0 0 36 36" width="36" xmlns="http://www.w3.org/2000/svg"><g fill="none" fill-rule="evenodd"><path d="m4.953 0c-.526 0-.953.421-.953 1.238v33.812c0 .222.427.95.953.95h26.094c.526 0 .953-.728.953-.95v-26.707c0-.447-.06-.591-.167-.697l-7.577-7.481a.58.58 0 0 0 -.406-.165z" fill="#e9e9e0" fill-rule="nonzero"/><path d="m24.2600002.17 7.5699997 7.4800001h-7.5699997z" fill="#d9d7ca"/><path d="m4.953 36a.95.95 0 0 1 -.953-.947v-10.053h28v10.053a.95.95 0 0 1 -.953.947z" fill="#c1393d" fill-rule="nonzero"/><path d="m6.901 32.094h.996c.118.581.694.977 1.543.977.899 0 1.436-.415 1.436-1.045 0-.508-.337-.786-1.07-.967l-1.127-.273c-1.006-.25-1.602-.85-1.602-1.792 0-1.172.986-1.968 2.368-1.968 1.372 0 2.261.781 2.354 1.802h-.991c-.113-.542-.616-.909-1.377-.909-.81 0-1.338.415-1.338 1.011 0 .44.327.737.928.88l1.118.273c1.142.278 1.748.815 1.748 1.845 0 1.226-.957 2.046-2.534 2.046-1.485 0-2.369-.815-2.452-1.88zm8.755 1.743h-1.006v-5.737h-1.977v-.928h4.96v.928h-1.977zm7.198-.918v.918h-4.097v-6.665h4.097v.918h-3.096v1.92h2.92v.878h-2.92v2.031zm4.077-5.747c1.333 0 2.168.909 2.168 2.149s-.84 2.134-2.173 2.134h-1.494v2.382h-1.006v-6.665zm1.137 2.149c0-.796-.464-1.245-1.26-1.245h-1.376v2.49h1.377c.795 0 1.26-.46 1.26-1.245z" fill="#fff"/><g fill-rule="nonzero"><path d="m18.314 9.907a.325.325 0 0 1 -.326-.326v-3.255a.325.325 0 1 1 .652 0v3.254c0 .18-.146.326-.326.326zm-7.163 9.116a.326.326 0 0 1 -.146-.617l2.605-1.302a.326.326 0 0 1 .291.582l-2.604 1.303a.323.323 0 0 1 -.146.034zm14.325 0a.326.326 0 0 1 -.145-.034l-2.604-1.302a.326.326 0 0 1 .291-.583l2.605 1.303a.326.326 0 0 1 -.147.616z" fill="#c8bdb8"/><path d="m18.314 13.776 4.558-2.28-4.412-2.206a.325.325 0 0 0 -.29 0l-4.413 2.206 4.558 2.28zm.326.565v5.535l4.378-2.19a.325.325 0 0 0 .18-.29v-5.334l-4.558 2.278zm-.652 0-4.558-2.28v5.334c0 .124.07.236.18.292l4.378 2.189v-5.536z" fill="#ada29e"/></g></g></svg>
