<svg height="36" viewBox="0 0 36 36" width="36" xmlns="http://www.w3.org/2000/svg"><g fill="none" fill-rule="evenodd"><path d="m4.953 0c-.526 0-.953.421-.953 1.238v33.812c0 .222.427.95.953.95h26.094c.526 0 .953-.728.953-.95v-26.707c0-.447-.06-.591-.167-.697l-7.577-7.481a.58.58 0 0 0 -.406-.165z" fill="#e9e9e0" fill-rule="nonzero"/><path d="m24.2600002.17 7.5699997 7.4800001h-7.5699997z" fill="#d9d7ca"/><path d="m4.953 36a.95.95 0 0 1 -.953-.947v-10.053h28v10.053a.95.95 0 0 1 -.953.947z" fill="#90bae1" fill-rule="nonzero"/><path d="m12.639 27.167c1.367 0 2.202.806 2.202 2.046 0 .943-.523 1.612-1.23 1.866l1.352 2.754h-1.138l-1.21-2.569h-1.47v2.569h-1.001v-6.666zm-1.494 3.228h1.323c.854 0 1.338-.39 1.338-1.143 0-.766-.493-1.196-1.304-1.196h-1.357zm7.568 3.438h-1.006v-5.738h-1.978v-.928h4.961v.928h-1.977zm4.106 0h-1.006v-6.666h4.043v.923h-3.036v2.066h2.779v.908h-2.779v2.769z" fill="#fff"/><path d="m8.036 8.357a.643.643 0 1 1 0-1.286h3.857a.643.643 0 1 1 0 1.286zm0 3.214a.643.643 0 1 1 0-1.285h5.785a.643.643 0 1 1 0 1.285zm8.357 0a.675.675 0 0 1 -.457-.186.661.661 0 0 1 -.186-.456c0-.174.07-.335.186-.457a.673.673 0 0 1 .913 0c.116.122.187.29.187.457s-.071.334-.187.456a.676.676 0 0 1 -.456.186zm2.571 0a.643.643 0 1 1 0-1.285h5.143a.643.643 0 1 1 0 1.285zm-11.384 8.544a.673.673 0 0 1 .913 0c.116.122.187.29.187.456 0 .168-.071.335-.187.457a.664.664 0 0 1 -.456.186.663.663 0 0 1 -.457-.186.661.661 0 0 1 -.186-.457c0-.173.07-.334.186-.456zm8.171-.186a.643.643 0 1 1 0 1.285h-5.143a.643.643 0 1 1 0-1.285zm10.929-8.358a.643.643 0 1 1 0-1.285h1.285a.643.643 0 1 1 0 1.285zm-18.644 3.215a.643.643 0 1 1 0-1.286h14.143a.643.643 0 1 1 0 1.286zm19.928-1.286a.643.643 0 1 1 0 1.286h-3.857a.643.643 0 1 1 0-1.286zm-19.928 4.5a.643.643 0 1 1 0-1.286h2.571a.643.643 0 1 1 0 1.286zm11.571-1.286a.643.643 0 1 1 0 1.286h-6.427a.643.643 0 1 1 0-1.286h6.428zm8.357 0a.643.643 0 1 1 0 1.286h-5.784a.643.643 0 1 1 0-1.286h5.785z" fill="#c8bdb8" fill-rule="nonzero"/></g></svg>
