<svg height="36" viewBox="0 0 36 36" width="36" xmlns="http://www.w3.org/2000/svg"><g fill="none" fill-rule="evenodd"><path d="m4.953 0c-.526 0-.953.421-.953 1.238v33.812c0 .222.427.95.953.95h26.094c.526 0 .953-.728.953-.95v-26.707c0-.447-.06-.591-.167-.697l-7.577-7.481a.58.58 0 0 0 -.406-.165z" fill="#e9e9e0" fill-rule="nonzero"/><path d="m11.893 8.357h-3.857a.643.643 0 0 1 0-1.286h3.857a.643.643 0 0 1 0 1.286zm3.857 12.857h-5.143a.643.643 0 0 1 0-1.285h5.143a.643.643 0 0 1 0 1.285zm12.214-9.643h-1.284a.643.643 0 0 1 0-1.285h1.285a.643.643 0 0 1 0 1.285zm-5.785 3.215h-14.143a.643.643 0 0 1 0-1.286h14.143a.643.643 0 0 1 0 1.286zm5.785 0h-3.857a.643.643 0 0 1 0-1.286h3.857a.643.643 0 0 1 0 1.286zm-17.357 3.214h-2.571a.643.643 0 0 1 0-1.286h2.571a.643.643 0 0 1 0 1.286zm9 0h-6.427a.643.643 0 0 1 0-1.286h6.428a.643.643 0 0 1 0 1.286zm8.357 0h-5.784a.643.643 0 0 1 0-1.286h5.785a.643.643 0 0 1 0 1.286zm-14.143-6.429h-5.785a.643.643 0 0 1 0-1.285h5.785a.643.643 0 0 1 0 1.285zm2.572 0a.676.676 0 0 1 -.457-.186.676.676 0 0 1 -.186-.456c0-.168.07-.335.186-.457a.673.673 0 0 1 .913 0c.116.122.187.29.187.457s-.071.334-.187.456a.676.676 0 0 1 -.456.186zm7.714 0h-5.143a.643.643 0 0 1 0-1.285h5.143a.643.643 0 0 1 0 1.285zm-16.071 9.643a.676.676 0 0 1 -.457-.186.676.676 0 0 1 -.186-.457c0-.167.07-.334.186-.456a.673.673 0 0 1 .913 0 .664.664 0 0 1 .187.456c0 .168-.071.335-.187.457a.676.676 0 0 1 -.456.186z" fill="#8697cb" fill-rule="nonzero"/><path d="m24.2600002.17 7.5699997 7.4800001h-7.5699997z" fill="#d9d7ca"/><path d="m4.953 36a.95.95 0 0 1 -.953-.947v-10.053h28v10.053a.95.95 0 0 1 -.953.947z" fill="#0096e6" fill-rule="nonzero"/><path d="m8.874 27.165h2.236c1.968 0 2.945 1.177 2.945 3.325 0 2.149-.982 3.34-2.945 3.34h-2.236zm1.006.913v4.834h1.138c1.352 0 2.002-.796 2.002-2.407 0-1.616-.655-2.427-2.002-2.427zm9.795 1.958c0-1.391-.738-2.075-1.714-2.075-.982 0-1.714.684-1.714 2.075v.928c0 1.391.732 2.07 1.714 2.07.977 0 1.714-.679 1.714-2.07zm1.015.923c0 1.885-1.06 3.008-2.73 3.008-1.674 0-2.729-1.123-2.729-3.008v-.918c0-1.895 1.055-3.008 2.73-3.008 1.67 0 2.73 1.118 2.73 3.008v.918zm2.28-.889v.889c0 1.323.606 2.07 1.676 2.07.84 0 1.416-.483 1.494-1.181h.986v.068c-.088 1.196-1.118 2.05-2.485 2.05-1.714 0-2.686-1.112-2.686-3.002v-.903c0-1.885.991-3.028 2.686-3.028 1.372 0 2.402.88 2.485 2.134v.068h-.986c-.078-.737-.674-1.27-1.494-1.27-1.05 0-1.675.777-1.675 2.105z" fill="#fff"/></g></svg>
