<svg height="36" viewBox="0 0 36 36" width="36" xmlns="http://www.w3.org/2000/svg"><g fill="none" fill-rule="evenodd"><path d="m4.953 0c-.526 0-.953.421-.953 1.238v33.812c0 .222.427.95.953.95h26.094c.526 0 .953-.728.953-.95v-26.707c0-.447-.06-.591-.167-.697l-7.577-7.481a.58.58 0 0 0 -.406-.165z" fill="#e9e9e0" fill-rule="nonzero"/><path d="m24.2600002.17 7.5699997 7.4800001h-7.5699997z" fill="#d9d7ca"/><path d="m4.953 36a.95.95 0 0 1 -.953-.947v-10.053h28v10.053a.95.95 0 0 1 -.953.947z" fill="#f29c1f" fill-rule="nonzero"/><path d="m14.238 27.167-2.183 3.355 2.144 3.31h-1.187l-1.587-2.5h-.049l-1.591 2.5h-1.118l2.138-3.359-2.114-3.306h1.201l1.582 2.52h.049l1.567-2.52zm1.953 6.666h-.908v-6.666h1l2.1 4.771h.04l2.099-4.77h.996v6.665h-.913v-4.668h-.054l-1.767 3.974h-.767l-1.777-3.974h-.05v4.668zm11.142-.943v.943h-3.999v-6.666h1.006v5.723z" fill="#fff"/><path d="m24.805 14.786-3.402-3.403a.642.642 0 1 1 .909-.909l3.857 3.857a.642.642 0 0 1 0 .91l-3.857 3.856a.641.641 0 0 1 -.91 0 .642.642 0 0 1 0-.909zm-14.974.454a.642.642 0 0 1 0-.909l3.857-3.857a.642.642 0 1 1 .91.91l-3.403 3.402 3.402 3.402a.642.642 0 1 1 -.909.91zm6.24 5.331a.64.64 0 0 1 -.606-.857l3.857-10.928a.642.642 0 1 1 1.213.428l-3.857 10.929a.643.643 0 0 1 -.607.428z" fill="#f29c1f" fill-rule="nonzero"/></g></svg>
