<svg height="36" viewBox="0 0 36 36" width="36" xmlns="http://www.w3.org/2000/svg"><g fill="none" fill-rule="evenodd"><path d="m4.953 0c-.526 0-.953.421-.953 1.238v33.812c0 .222.427.95.953.95h26.094c.526 0 .953-.728.953-.95v-26.707c0-.447-.06-.591-.167-.697l-7.577-7.481a.58.58 0 0 0 -.406-.165z" fill="#e9e9e0" fill-rule="nonzero"/><path d="m24.2600002.17 7.5699997 7.4800001h-7.5699997z" fill="#d9d7ca"/><path d="m4.953 36a.95.95 0 0 1 -.953-.947v-10.053h28v10.053a.95.95 0 0 1 -.953.947z" fill="#e57e25" fill-rule="nonzero"/><path d="m9.184 32.094h.996c.117.581.694.977 1.543.977.899 0 1.436-.415 1.436-1.045 0-.508-.337-.786-1.07-.967l-1.128-.273c-1.005-.25-1.601-.85-1.601-1.792 0-1.172.986-1.968 2.368-1.968 1.372 0 2.26.781 2.354 1.802h-.992c-.112-.542-.615-.909-1.377-.909-.81 0-1.338.415-1.338 1.011 0 .44.328.737.928.88l1.118.273c1.143.278 1.748.815 1.748 1.845 0 1.226-.957 2.046-2.534 2.046-1.484 0-2.368-.815-2.45-1.88zm8.096 1.743-2.349-6.665h1.152l1.734 5.445h.054l1.728-5.445h1.128l-2.344 6.665zm9.492-4.77h-.996c-.166-.664-.713-1.094-1.509-1.094-1.07 0-1.7.767-1.7 2.08v.87c0 1.308.611 2.119 1.73 2.119 1.025 0 1.547-.577 1.547-1.338v-.537h-1.606v-.86h2.578v1.353c0 1.289-.879 2.314-2.52 2.314-1.772 0-2.739-1.182-2.739-3.047v-.884c0-1.82 1.02-3.002 2.73-3.002 1.401 0 2.329.869 2.485 2.026z" fill="#fff"/><path d="m28.929 14.143v-3.857h-3.859v1.285h-3.857v-2.571h-6.428v2.571h-3.857v-1.285h-3.858v3.857h3.858v-1.286h2.28c-2.935 1.695-4.852 4.878-4.852 8.357a.643.643 0 1 0 1.286 0c0-3.372 2.076-6.427 5.143-7.71v1.925h6.428v-1.926c3.068 1.284 5.143 4.339 5.143 7.711a.643.643 0 1 0 1.286 0c0-3.479-1.917-6.662-4.852-8.357h2.28v1.286h3.858zm-20.572-2.573h1.286v1.286h-1.286zm7.714-1.285h3.858v3.857h-3.859v-3.857zm10.286 1.285h1.286v1.286h-1.286z" fill="#c8bdb8" fill-rule="nonzero"/></g></svg>
