<svg height="36" viewBox="0 0 36 36" width="36" xmlns="http://www.w3.org/2000/svg"><g fill="none" fill-rule="evenodd"><path d="m4.953 0c-.526 0-.953.421-.953 1.238v33.812c0 .222.427.95.953.95h26.094c.526 0 .953-.728.953-.95v-26.707c0-.447-.06-.591-.167-.697l-7.577-7.481a.58.58 0 0 0 -.406-.165z" fill="#e9e9e0" fill-rule="nonzero"/><path d="m26.707 7.176a.645.645 0 0 0 -.89.187c-.921 1.411-2.558 3.32-3.337 4.098l-1.792 1.793-1.819-1.819 1.793-1.792c1.139-1.139 4.031-3.499 5.217-3.923l.073-.013c.335-.074.53-.396.472-.734a.662.662 0 0 0 -.734-.524l-.182.04c-1.568.522-4.794 3.283-5.755 4.245l-4.62 4.619c-.06-.003-.12-.01-.182-.01a3.903 3.903 0 0 0 -3.846 3.225l-.07.047-.012.344c-.022.606-.194 2.605-1.506 2.923a.68.68 0 0 0 -.51.74l.103.592h4.5l1.34-.019a3.93 3.93 0 0 0 3.908-4.294l4.531-4.53c.84-.84 2.524-2.802 3.505-4.305a.643.643 0 0 0 -.187-.89zm-11.756 12.734h-2.404l.01.02h-1.068c.57-.862.746-1.953.8-2.6l.052-.325a2.624 2.624 0 0 1 2.61-2.375c.078 0 .151.017.228.023l.107.014a2.626 2.626 0 0 1 1.671.907c.037.044.076.087.11.133a2.86 2.86 0 0 1 .348.639c.02.051.033.105.05.158.028.095.058.19.076.29l.004.015c.026.15.046.304.046.461a2.643 2.643 0 0 1 -2.64 2.64zm3.156-4.964-.012-.017a3.944 3.944 0 0 0 -1.5-1.218l1.365-1.366 1.82 1.819-1.332 1.33a3.912 3.912 0 0 0 -.341-.549z" fill="#c8bdb8" fill-rule="nonzero"/><path d="m24.2600002.17 7.5699997 7.4800001h-7.5699997z" fill="#d9d7ca"/><path d="m4.953 36a.95.95 0 0 1 -.953-.947v-10.053h28v10.053a.95.95 0 0 1 -.953.947z" fill="#5889c4" fill-rule="nonzero"/><path d="m11.95 27.172c1.333 0 2.168.909 2.168 2.149s-.84 2.134-2.173 2.134h-1.494v2.382h-1.006v-6.665zm1.138 2.149c0-.796-.464-1.245-1.26-1.245h-1.377v2.49h1.377c.796 0 1.26-.46 1.26-1.245zm1.84 2.773h.997c.117.581.693.977 1.543.977.898 0 1.435-.415 1.435-1.045 0-.508-.337-.786-1.069-.967l-1.128-.273c-1.006-.25-1.602-.85-1.602-1.792 0-1.172.987-1.968 2.369-1.968 1.372 0 2.26.781 2.353 1.802h-.991c-.112-.542-.615-.909-1.377-.909-.81 0-1.338.415-1.338 1.011 0 .44.327.737.928.88l1.118.273c1.143.278 1.748.815 1.748 1.845 0 1.226-.957 2.046-2.534 2.046-1.484 0-2.368-.815-2.451-1.88zm6.446-4.922h2.236c1.968 0 2.945 1.177 2.945 3.326 0 2.148-.982 3.34-2.945 3.34h-2.236zm1.006.913v4.834h1.138c1.352 0 2.002-.795 2.002-2.407 0-1.616-.655-2.427-2.002-2.427z" fill="#fff"/></g></svg>
