<svg viewBox="0 0 36 36" width="36" height="36" xmlns="http://www.w3.org/2000/svg"><g fill="none" fill-rule="evenodd"><path d="M4.953 0C4.427 0 4 .421 4 1.238V35.05c0 .222.427.95.953.95h26.094c.526 0 .953-.728.953-.95V8.343c0-.447-.06-.591-.167-.697L24.256.165A.58.58 0 0 0 23.85 0H4.953z" fill="#E9E9E0" fill-rule="nonzero"/><path fill="#D9D7CA" d="M24.2600002 0.170000002L31.8299999 7.6500001 24.2600002 7.6500001z"/><path d="M4.953 36A.95.95 0 0 1 4 35.053V25h28v10.053a.95.95 0 0 1-.953.947H4.953z" fill="#659C35" fill-rule="nonzero"/><path d="M13 33.83h-1.006v-2.964H8.82v2.964H7.814v-6.665H8.82v2.773h3.174v-2.773H13v6.665zm5.898-.918v.918h-4.096v-6.665h4.096v.918h-3.095v1.919h2.92v.879h-2.92v2.031h3.095zm2.579.918H20.47v-6.665h1.006v6.665zm2.553-3.76v.889c0 1.323.606 2.07 1.675 2.07.84 0 1.416-.483 1.494-1.181h.987v.068c-.088 1.196-1.119 2.05-2.486 2.05-1.714 0-2.685-1.112-2.685-3.002v-.903c0-1.885.99-3.028 2.685-3.028 1.372 0 2.403.88 2.486 2.134v.068h-.987c-.078-.737-.674-1.27-1.494-1.27-1.05 0-1.675.777-1.675 2.105z" fill="#FFF"/><path fill="#88C057" fill-rule="nonzero" d="M4 25L32 25 32 17.1071429 25.2142857 11 18.4642857 18.3928571 14.9395 14.8680714 4 24.1785714z"/><path d="M14.491 9.277a2.938 2.938 0 1 1-5.875 0 2.938 2.938 0 0 1 5.875 0" fill="#F3D55B" fill-rule="nonzero"/></g></svg>
