<svg height="36" viewBox="0 0 36 36" width="36" xmlns="http://www.w3.org/2000/svg"><g fill="none" fill-rule="nonzero"><path d="m35.5 22c0 .8291424-.6708576 1.5-1.5 1.5h-20c-.8291424 0-1.5-.6708576-1.5-1.5v-11c0-.8291424.6708576-1.5 1.5-1.5h20c.8291424 0 1.5.6708576 1.5 1.5z" fill="#f5a623" opacity=".9" stroke="#fff"/><path d="m26.1875 14.9375h-.625v-1.25c0-.8629449-.6995551-1.5625-1.5625-1.5625s-1.5625.6995551-1.5625 1.5625v1.25h-.625v-1.25c0-1.2081229.9793771-2.1875 2.1875-2.1875s2.1875.9793771 2.1875 2.1875zm1.25.625c.345178 0 .625.279822.625.625v4.6875c0 .345178-.279822.625-.625.625h-6.875c-.345178 0-.625-.279822-.625-.625v-4.6875c0-.345178.279822-.625.625-.625zm-3.125 3.705625c.6094709-.1573647 1.0068516-.7433709.9275371-1.3678127s-.6105783-1.0924946-1.2400371-1.0924946-1.1607226.4680528-1.2400371 1.0924946.3180662 1.210448.9275371 1.3678127v.981875h.625z" fill="#fff"/></g></svg>