<svg height="36" viewBox="0 0 36 36" width="36" xmlns="http://www.w3.org/2000/svg"><g fill="none" fill-rule="evenodd"><path d="m4.953 0c-.526 0-.953.421-.953 1.238v33.812c0 .222.427.95.953.95h26.094c.526 0 .953-.728.953-.95v-26.707c0-.447-.06-.591-.167-.697l-7.577-7.481a.58.58 0 0 0 -.406-.165z" fill="#e9e9e0" fill-rule="nonzero"/><path d="m24.2600002.17 7.5699997 7.4800001h-7.5699997z" fill="#d9d7ca"/><g fill-rule="nonzero"><path d="m4.953 36a.95.95 0 0 1 -.953-.947v-10.053h28v10.053a.95.95 0 0 1 -.953.947z" fill="#0f8888"/><path d="m6.91964286 8.35714286h9.64285714v9.68464284h-9.64285714z" fill="#c8bdb8"/><path d="m21.0625 9h1.2857143v4.5h-1.2857143z" fill="#ada29e"/><path d="m21.0625 18.6428571h1.2857143v4.5h-1.2857143z" fill="#ada29e"/><path d="m18.491 12.857h6.429v6.429h-6.43v-6.429zm1.286 5.143h3.857v-3.857h-3.857z" fill="#ada29e"/><path d="m24.2767857 15.4285714h4.5v1.2857143h-4.5z" fill="#ada29e"/><path d="m14.6339286 15.4285714h4.5v1.2857143h-4.5z" fill="#ada29e"/></g><path d="m12.82 27.167c1.332 0 2.167.909 2.167 2.149s-.84 2.134-2.173 2.134h-1.494v2.383h-1.006v-6.666h2.505zm1.137 2.149c0-.796-.464-1.245-1.26-1.245h-1.377v2.49h1.377c.796 0 1.26-.459 1.26-1.245zm6.304 3.574v.943h-4v-6.666h1.007v5.723zm3.447.943h-1.006v-5.738h-1.977v-.928h4.96v.928h-1.977z" fill="#fff"/></g></svg>
