<svg height="36" viewBox="0 0 36 36" width="36" xmlns="http://www.w3.org/2000/svg"><g fill="none" fill-rule="evenodd"><path d="m4.953 0c-.526 0-.953.421-.953 1.238v33.812c0 .222.427.95.953.95h26.094c.526 0 .953-.728.953-.95v-26.707c0-.447-.06-.591-.167-.697l-7.577-7.481a.58.58 0 0 0 -.406-.165z" fill="#e9e9e0" fill-rule="nonzero"/><path d="m23.464 7.071v.297a6.454 6.454 0 0 0 -4.18 4.14 2.545 2.545 0 0 0 -1.605-.58 2.569 2.569 0 0 0 -2.48 1.93h-2.02v-1.288h-3.859v3.858h3.858v-1.286h1.877a5.132 5.132 0 0 1 -2.821 3.962 2.565 2.565 0 0 0 -2.27-1.39 2.574 2.574 0 0 0 -2.572 2.57 2.574 2.574 0 0 0 2.571 2.572c1.38 0 2.5-1.094 2.56-2.459a6.43 6.43 0 0 0 3.551-3.904c.441.356.994.577 1.604.577a2.569 2.569 0 0 0 2.48-1.928h2.02v1.286h3.857v-3.858h-3.857v1.286h-1.884a5.15 5.15 0 0 1 3.357-4.19 2.57 2.57 0 0 0 2.384 1.619 2.574 2.574 0 0 0 2.571-2.572v-.643h-5.143zm-12.857 5.786h1.286v1.286h-1.286zm-.643 7.714a1.287 1.287 0 0 1 -1.285-1.285c0-.71.577-1.286 1.285-1.286a1.287 1.287 0 0 1 0 2.571zm13.5-7.714h1.286v1.286h-1.286zm-5.785 1.929a1.287 1.287 0 0 1 -1.286-1.286 1.287 1.287 0 0 1 2.571 0c0 .71-.576 1.286-1.285 1.286zm8.357-5.786c-.465 0-.87-.25-1.096-.62.15-.013.3-.023.453-.023h1.755a1.285 1.285 0 0 1 -1.112.643z" fill="#c8bdb8" fill-rule="nonzero"/><path d="m24.2600002.17 7.5699997 7.4800001h-7.5699997z" fill="#d9d7ca"/><path d="m4.953 36a.95.95 0 0 1 -.953-.947v-10.053h28v10.053a.95.95 0 0 1 -.953.947z" fill="#ffc14f" fill-rule="nonzero"/><path d="m15.092 33.833h-1.03l2.324-6.666h1.09l2.318 6.666h-1.06l-.62-1.86h-2.397zm1.846-5.528h-.044l-.937 2.837h1.918zm5 5.528h-1.006v-6.666h1.006z" fill="#fff"/></g></svg>
