<svg height="36" viewBox="0 0 36 36" width="36" xmlns="http://www.w3.org/2000/svg"><g fill="none" fill-rule="evenodd"><path d="m4.95265116 0c-.52613953 0-.95265116.42107143-.95265116 1.23814286v33.81185634c0 .2217858.42651163.9500008.95265116.9500008h26.09469764c.5261396 0 .9526512-.728215.9526512-.9500008v-26.7069992c0-.44742857-.0605581-.59142857-.1673488-.6975l-7.5769303-7.48028571c-.1074418-.10542858-.2533023-.16521429-.4050232-.16521429z" fill="#e9e9e0" fill-rule="nonzero"/><path d="m13.3770492 7.08183607c.1450492 0 .2622951.1172459.2622951.26229508v8.39344265c0 .1450492-.1172459.2622951-.2622951.2622951h-13.11475412c-.14504918 0-.26229508-.1172459-.26229508-.2622951v-13.11475413c0-.14504918.1172459-.26229508.26229508-.26229508h8.39344262c.14504919 0 .26229509.1172459.26229509.26229508s-.1172459.26229508-.26229509.26229508h-8.13114754v12.59016395h12.59016394v-8.13114755c0-.14504918.1172459-.26229508.2622951-.26229508zm-.402623-5.53993443 1.483541 1.48354098-6.89652458 6.89652459-2.0532459.56970489.56970492-2.05324587zm2.718164-1.23462295c.4099672.40944262.4099672 1.07409836 0 1.48354098l-.8637377.86373771-1.483541-1.48354099.8637377-.8637377c.4091803-.40970492 1.0740983-.40970492 1.483541 0z" fill="#c8bdb8" transform="translate(10 6)"/><path d="m24.2600002.17 7.5699997 7.4800001h-7.5699997z" fill="#d9d7ca"/><g fill-rule="nonzero"><path d="m4.95265116 36c-.52613953 0-.95265116-.4238235-.95265116-.9466471v-10.0533529h28v10.0533529c0 .5228236-.4265116.9466471-.9526512.9466471z" fill="#355595"/><path d="m7.50912384 32.6232424c-.70800782 0-1.24023438-.3076172-1.47460938-.8544922h-.05371094v2.4951172h-1.08398437v-6.8847656h1.0546875v.8251953h.05371094c.20996093-.5566407.79101562-.8886719 1.52832031-.8886719 1.20117187 0 1.94335937.859375 1.94335937 2.265625v.7666016c0 1.4160156-.74707031 2.2753906-1.96777343 2.2753906zm-.30761719-.9277344c.74707031 0 1.17675781-.5419922 1.17675781-1.4794922v-.4882812c0-.9472657-.4296875-1.484375-1.19628906-1.484375-.7421875 0-1.20117188.5224609-1.20117188 1.3867187v.7519531c0 .7861329.49316407 1.3134766 1.22070313 1.3134766zm5.08789065.9326172c-1.0009766 0-1.6894532-.6103516-1.6894532-1.5771484 0-.9179688.6347657-1.5332032 1.8261719-1.5332032h1.303711v-.4785156c0-.5712891-.3759766-.8398437-.9716797-.8398437-.5859375 0-.8496094.2392578-.9326172.571289h-1.0302735c.0634766-.8544922.7128907-1.4648437 1.9970704-1.4648437 1.1035156 0 2.0166015.4589843 2.0166015 1.7529297v3.4912109h-1.0302734v-.6640625h-.0488281c-.2294922.390625-.678711.7421875-1.4404297.7421875zm.336914-.8691406c.6152344 0 1.1035157-.4052735 1.1035157-.9521485v-.546875h-1.1328125c-.6298829 0-.9082032.3076172-.9082032.7275391 0 .5224609.4492188.7714844.9375.7714844zm6.4013672.8642578c-.7080078 0-1.2402344-.3076172-1.4746094-.8544922h-.0537109v2.4951172h-1.0839844v-6.8847656h1.0546875v.8251953h.053711c.2099609-.5566407.7910156-.8886719 1.5283203-.8886719 1.2011719 0 1.9433594.859375 1.9433594 2.265625v.7666016c0 1.4160156-.7470704 2.2753906-1.9677735 2.2753906zm-.3076172-.9277344c.7470703 0 1.1767578-.5419922 1.1767578-1.4794922v-.4882812c0-.9472657-.4296875-1.484375-1.196289-1.484375-.7421875 0-1.2011719.5224609-1.2011719 1.3867187v.7519531c0 .7861329.4931641 1.3134766 1.2207031 1.3134766zm5.7128907.9423828c-1.40625 0-2.2802735-.859375-2.2802735-2.3339844v-.6738281c0-1.484375.9570313-2.3339844 2.2167969-2.3339844 1.2939453 0 2.2070312.8984375 2.2070312 2.3339844v.600586h-3.3496093v.2539062c0 .7226563.4394531 1.2548828 1.2011718 1.2548828.5664063 0 .9570313-.2685547 1.0302735-.5908203h1.0595703c-.0634766.6103516-.6933594 1.4892578-2.0849609 1.4892578zm-1.2060547-3.1347656h2.290039v-.0634766c0-.7568359-.4541015-1.2597656-1.1425781-1.2597656s-1.1474609.5029297-1.1474609 1.2597656zm4.7851562 3.046875v-5.1660156h1.0791016v.805664h.0585937c.1123047-.3466797.4882813-.883789 1.3525391-.883789.1464844 0 .2636719.0146484.3662109.0341797v1.0009765c-.0927734-.0292969-.2832031-.0390625-.4638672-.0390625-.8691406 0-1.2939453.5078125-1.2939453 1.2060547v3.0419922z" fill="#fff"/></g></g></svg>
