<svg width="36" height="36" viewBox="0 0 36 36" xmlns="http://www.w3.org/2000/svg"><g fill="none" fill-rule="evenodd"><path d="M4.953 0C4.427 0 4 .421 4 1.238V35.05c0 .222.427.95.953.95h26.094c.526 0 .953-.728.953-.95V8.343c0-.447-.06-.591-.167-.697L24.256.165A.58.58 0 0 0 23.85 0H4.953z" fill="#E9E9E0" fill-rule="nonzero"/><g transform="translate(10 6)" fill-rule="nonzero"><path d="M15.973 8.533H16V14.4a1.6 1.6 0 0 1-1.6 1.6H1.6A1.6 1.6 0 0 1 0 14.4V8.533h.027c.044-.219.142-.418.28-.584A.533.533 0 0 1 0 7.467V1.6A1.6 1.6 0 0 1 1.6 0h12.8A1.6 1.6 0 0 1 16 1.6v5.867a.533.533 0 0 1-.306.482c.137.166.235.365.28.584z" fill="#D3CCC9"/><path fill="#ADA29E" d="M13.3333333 8.53333333L13.3333333 8 2.66666667 8 2.66666667 8.53333333z"/><path fill="#C8BDB8" d="M3.2 8L12.8 8 12.8 8.53333333 3.2 8.53333333z"/><path d="M12.533 12.733a.533.533 0 1 0 0-1.066.533.533 0 0 0 0 1.066zm2.134 0a.533.533 0 1 0 0-1.066.533.533 0 0 0 0 1.066zM13.6 13.8a.533.533 0 1 0 0-1.067.533.533 0 0 0 0 1.067zm0-2.133a.533.533 0 1 0 0-1.067.533.533 0 0 0 0 1.067zM2.433 13.733a1.367 1.367 0 1 0 0-2.733 1.367 1.367 0 0 0 0 2.733z" fill="#ADA29E"/><path fill="#FFF" d="M4.8 10.1333333L4.8 14.4 11.2 14.4 11.2 10.1333333z"/><path d="M3.2 1.067a.533.533 0 0 0-.533.533v4.8c0 .295.238.533.533.533h9.6a.533.533 0 0 0 .533-.533V1.6a.533.533 0 0 0-.533-.533H3.2z" fill="#FFF"/></g><path fill="#D9D7CA" d="M24.2600002 0.170000002L31.8299999 7.6500001 24.2600002 7.6500001z"/><path d="M4.953 36A.95.95 0 0 1 4 35.053V25h28v10.053a.95.95 0 0 1-.953.947H4.953z" fill="#E60012" fill-rule="nonzero"/><path d="M10.524 30.552v-.874h.694c.669 0 1.167-.44 1.162-1.045 0-.596-.484-1.01-1.167-1.01-.679 0-1.128.42-1.167.888h-.948c.03-.938.762-1.753 2.13-1.758 1.298-.01 2.128.737 2.153 1.714.024.947-.733 1.484-1.23 1.567v.059c.57.063 1.43.532 1.45 1.602.019 1.206-1.026 1.992-2.403 1.992s-2.207-.801-2.25-1.778h.932c.053.503.59.894 1.333.899.84.005 1.386-.479 1.377-1.143-.005-.659-.547-1.113-1.338-1.113h-.728zm4.585-3.667h2.237c1.967 0 2.944 1.177 2.944 3.325 0 2.149-.982 3.34-2.944 3.34h-2.237v-6.665zm1.006.913v4.834h1.138c1.352 0 2.002-.796 2.002-2.407 0-1.616-.655-2.427-2.002-2.427h-1.138zm5.151 4.009h.997c.117.58.693.976 1.543.976.898 0 1.435-.415 1.435-1.045 0-.507-.337-.786-1.07-.966l-1.127-.274c-1.006-.249-1.602-.85-1.602-1.792 0-1.172.987-1.968 2.368-1.968 1.372 0 2.261.782 2.354 1.802h-.991c-.113-.542-.616-.908-1.377-.908-.81 0-1.338.415-1.338 1.01 0 .44.327.738.928.88l1.118.273c1.142.278 1.748.816 1.748 1.846 0 1.225-.957 2.046-2.534 2.046-1.485 0-2.369-.816-2.452-1.88z" fill="#FFF"/></g></svg>
