<svg height="36" viewBox="0 0 36 36" width="36" xmlns="http://www.w3.org/2000/svg"><g fill="none" fill-rule="evenodd"><path d="m4.95265116 0c-.52613953 0-.95265116.42107143-.95265116 1.23814286v33.81185634c0 .2217858.42651163.9500008.95265116.9500008h26.09469764c.5261396 0 .9526512-.728215.9526512-.9500008v-26.7069992c0-.44742857-.0605581-.59142857-.1673488-.6975l-7.5769303-7.48028571c-.1074418-.10542858-.2533023-.16521429-.4050232-.16521429z" fill="#e9e9e0" fill-rule="nonzero"/><path d="m24.2600002.17 7.5699997 7.4800001h-7.5699997z" fill="#d9d7ca"/><g fill-rule="nonzero"><path d="m4.95265116 36c-.52613953 0-.95265116-.4238235-.95265116-.9466471v-10.0533529h28v10.0533529c0 .5228236-.4265116.9466471-.9526512.9466471z" fill="#556080"/><path d="m17.6459961 29.0961914h-1.09375c-.1513672-.6396484-.6787109-1.0644531-1.4550781-1.0644531-1.0302735 0-1.6308594.7470703-1.6308594 2.0214844v.859375c0 1.2597656.5664062 2.0605468 1.6650391 2.0605468.9863281 0 1.4892578-.5615234 1.4892578-1.2939453v-.4980469h-1.5332032v-.9033203h2.5976563v1.3476563c0 1.2890625-.8691406 2.3388672-2.5585938 2.3388672-1.821289 0-2.7783203-1.2060547-2.7783203-3.046875v-.8691407c0-1.8164062 1.0302735-3.0126953 2.7685547-3.0126953 1.4648438 0 2.3876953.9033203 2.5292969 2.0605469zm1.1865234 4.7363281v-.7763672l3.3789063-4.8535156v-.0585937h-3.2763672v-.9765625h4.6289062v.7763672l-3.3642578 4.8486328v.0634765h3.4521485v.9765625z" fill="#fff"/><path d="m18.6428571 15.4285714v-1.2857143h1.2857143v-1.2857142h-1.2857143v-1.2857143h1.2857143v-1.2857143h-1.2857143v-1.2857143h1.2857143v-1.28571429h-1.2857143v-1.28571428h1.2857143v-1.28571429h-1.2857143v-1.28571428h-1.2857142v1.28571428h-1.2857143v1.28571429h1.2857143v1.28571428h-1.2857143v1.28571429h1.2857143v1.2857143h-1.2857143v1.2857143h1.2857143v1.2857143h-1.2857143v1.2857142h1.2857143v1.2857143h-2.5714286v3.2142857c0 1.7723572 1.4419286 3.2142858 3.2142857 3.2142858s3.2142857-1.4419286 3.2142857-3.2142858v-3.2142857zm1.2857143 3.2142857c0 1.0632858-.8652857 1.9285715-1.9285714 1.9285715s-1.9285714-.8652857-1.9285714-1.9285715v-1.9285714h3.8571428z" fill="#c8bdb8"/><path d="m16.4196429 19.2857143h1.2857142c.3548572 0 .6428572-.2873572.6428572-.6428572s-.288-.6428571-.6428572-.6428571h-1.2857142c-.3548572 0-.6428572.2873571-.6428572.6428571s.288.6428572.6428572.6428572" fill="#c8bdb8"/></g></g></svg>