<svg width="36px" height="36px" viewBox="0 0 36 36" version="1.1" xmlns="http://www.w3.org/2000/svg" xmlns:xlink="http://www.w3.org/1999/xlink">
    <defs>
        <path d="M4.95265116,0 C4.42651163,0 4,0.421071429 4,1.23814286 L4,35.0499992 C4,35.271785 4.42651163,36 4.95265116,36 L31.0473488,36 C31.5734884,36 32,35.271785 32,35.0499992 L32,8.343 C32,7.89557143 31.9394419,7.75157143 31.8326512,7.6455 L24.2557209,0.165214286 C24.1482791,0.0597857143 24.0024186,0 23.8506977,0 L4.95265116,0 Z" id="path-1"></path>
    </defs>
    <g id="file_pages" stroke="none" stroke-width="1" fill="none" fill-rule="evenodd">
        <mask id="mask-2" fill="white">
            <use xlink:href="#path-1"></use>
        </mask>
        <use id="Mask" fill="#E9E9E0" fill-rule="nonzero" xlink:href="#path-1"></use>
        <g id="Group" mask="url(#mask-2)">
            <g transform="translate(10.000000, 5.000000)">
                <path d="M11.6002669,2.20291187 L13.2970881,3.89973308 L3.28776918,13.909052 L0.939339828,14.5606602 L1.59094797,12.2122308 L11.6002669,2.20291187 Z M14.7092058,0.790794221 C15.1781116,1.25910008 15.1781116,2.01930958 14.7092058,2.48761543 L13.7212934,3.47552778 L12.0244722,1.77870657 L13.0123846,0.790794221 C13.4803904,0.322188364 14.2408999,0.322188364 14.7092058,0.790794221 Z" id="Combined-Shape" fill="#D3CCC9" fill-rule="nonzero"></path>
                <rect id="Rectangle" fill="#C8BDB8" fill-rule="evenodd" x="1" y="15.5" width="26" height="1" rx="0.5"></rect>
            </g>
        </g>
        <polygon id="Rectangle-2" fill="#D9D7CA" mask="url(#mask-2)" points="24.2600002 0.170000002 31.8299999 7.6500001 24.2600002 7.6500001"></polygon>
        <path d="M4.95265116,36 C4.42651163,36 4,35.5761765 4,35.0533529 L4,25 L32,25 L32,35.0533529 C32,35.5761765 31.5734884,36 31.0473488,36 L4.95265116,36 Z" id="Fill-178" fill="#FF9F1C" fill-rule="nonzero" mask="url(#mask-2)"></path>
        <path d="M7.70687774,26.8849611 C9.03988555,26.8849611 9.87484649,27.7931643 9.87484649,29.0333986 C9.87484649,30.273633 9.03500274,31.1671877 7.70199493,31.1671877 L6.2078543,31.1671877 L6.2078543,33.5500002 L5.20199493,33.5500002 L5.20199493,26.8849611 L7.70687774,26.8849611 Z M8.84457305,29.0333986 C8.84457305,28.2375002 8.38070587,27.7882814 7.58480743,27.7882814 L6.2078543,27.7882814 L6.2078543,30.2785158 L7.58480743,30.2785158 C8.38070587,30.2785158 8.84457305,29.8195314 8.84457305,29.0333986 Z M11.5203543,33.5500002 L10.4900809,33.5500002 L12.8142996,26.8849611 L13.9031668,26.8849611 L16.2225027,33.5500002 L15.1629324,33.5500002 L14.5428152,31.6896486 L12.1453543,31.6896486 L11.5203543,33.5500002 Z M13.3660574,28.0226564 L13.3221121,28.0226564 L12.3846121,30.8595705 L14.3035574,30.8595705 L13.3660574,28.0226564 Z M22.3113699,28.7794924 L21.3152762,28.7794924 C21.1492606,28.1154299 20.6023856,27.6857424 19.8064871,27.6857424 C18.7371512,27.6857424 18.1072684,28.4523439 18.1072684,29.7658205 L18.1072684,30.6349611 C18.1072684,31.9435549 18.7176199,32.7541018 19.835784,32.7541018 C20.8611746,32.7541018 21.3836356,32.1779299 21.3836356,31.4162111 L21.3836356,30.8791018 L19.7771902,30.8791018 L19.7771902,30.0197268 L22.3553152,30.0197268 L22.3553152,31.3722658 C22.3553152,32.6613283 21.476409,33.6867189 19.835784,33.6867189 C18.0633231,33.6867189 17.0965262,32.5050783 17.0965262,30.6398439 L17.0965262,29.7560549 C17.0965262,27.9347658 18.117034,26.7531252 19.8260184,26.7531252 C21.2273856,26.7531252 22.1551199,27.6222658 22.3113699,28.7794924 Z M28.6736746,32.8957033 C28.6736746,32.4416018 29.0057059,32.1339846 29.4109793,32.1339846 C29.8406668,32.1339846 30.1629324,32.4416018 30.1629324,32.8957033 C30.1629324,33.3351564 29.835784,33.6378908 29.4109793,33.6378908 C29.0057059,33.6378908 28.6736746,33.3351564 28.6736746,32.8957033 Z M26.1980887,32.8957033 C26.1980887,32.4416018 26.5301199,32.1339846 26.9353934,32.1339846 C27.3650809,32.1339846 27.6873465,32.4416018 27.6873465,32.8957033 C27.6873465,33.3351564 27.3601981,33.6378908 26.9353934,33.6378908 C26.5301199,33.6378908 26.1980887,33.3351564 26.1980887,32.8957033 Z M23.7225027,32.8957033 C23.7225027,32.4416018 24.054534,32.1339846 24.4598074,32.1339846 C24.8846121,32.1339846 25.2117606,32.4416018 25.2117606,32.8957033 C25.2117606,33.3351564 24.8846121,33.6378908 24.4598074,33.6378908 C24.054534,33.6378908 23.7225027,33.3351564 23.7225027,32.8957033 Z" id="PAG…" fill="#FFFFFF" mask="url(#mask-2)"></path>
    </g>
</svg>
