<svg width="36" height="36" viewBox="0 0 36 36" xmlns="http://www.w3.org/2000/svg"><g fill="none" fill-rule="evenodd"><path d="M4.953 0C4.427 0 4 .421 4 1.238V35.05c0 .222.427.95.953.95h26.094c.526 0 .953-.728.953-.95V8.343c0-.447-.06-.591-.167-.697L24.256.165A.58.58 0 0 0 23.85 0H4.953z" fill="#E9E9E0" fill-rule="nonzero"/><path d="M15.429 13.143h5.142a3.429 3.429 0 0 1 0 6.857h-7.714a.857.857 0 1 1 0-1.714h7.714a1.714 1.714 0 0 0 0-3.429H15.43a3.429 3.429 0 0 1 0-6.857h7.714a.857.857 0 1 1 0 1.714h-7.714a1.714 1.714 0 0 0 0 3.429z" fill="#C8BDB8"/><path fill="#D9D7CA" d="M24.2600002 0.170000002L31.8299999 7.6500001 24.2600002 7.6500001z"/><path d="M4.953 36A.95.95 0 0 1 4 35.053V25h28v10.053a.95.95 0 0 1-.953.947H4.953z" fill="#00C783" fill-rule="nonzero"/><path d="M17.09 32.578v.972h-4.161v-6.665h4.16v.972h-3.056v1.85h2.876v.923h-2.876v1.948h3.056zm3.935.972h-1.109v-5.674h-1.948v-.991h5.01v.991h-1.953v5.674z" fill="#FFF" fill-rule="nonzero"/></g></svg>