<svg width="36px" height="36px" viewBox="0 0 36 36" version="1.1" xmlns="http://www.w3.org/2000/svg" xmlns:xlink="http://www.w3.org/1999/xlink">
    <g id="file_keynote" stroke="none" stroke-width="1" fill="none" fill-rule="evenodd">
        <g id="Group-2" transform="translate(4.000000, 0.000000)">
            <path d="M0.952651163,0 C0.426511628,0 0,0.421071429 0,1.23814286 L0,35.0499992 C0,35.271785 0.426511628,36 0.952651163,36 L27.0473488,36 C27.5734884,36 28,35.271785 28,35.0499992 L28,8.343 C28,7.89557143 27.9394419,7.75157143 27.8326512,7.6455 L20.2557209,0.165214286 C20.1482791,0.0597857143 20.0024186,0 19.8506977,0 L0.952651163,0 Z" id="Fill-16" fill="#E9E9E0" fill-rule="nonzero"></path>
            <g id="Group" transform="translate(7.142857, 5.000000)">
                <path d="M0,8.4137931 L13.6551724,8.4137931 L13.6551724,8.4137931 C13.6551724,8.79467914 13.3464033,9.10344828 12.9655172,9.10344828 L0.689655172,9.10344828 C0.308769138,9.10344828 4.66450863e-17,8.79467914 0,8.4137931 Z" id="Rectangle-3" fill="#C8BDB8"></path>
                <polygon id="Rectangle-4" fill="#C8BDB8" points="6.48275862 9.51724138 7.17241379 9.51724138 7.17241379 14.8907594 7.17241379 15.862069 6.48275862 15.862069 6.48275862 14.9060366"></polygon>
                <path d="M3.93103448,15.3103448 L9.72413793,15.3103448 C9.91458095,15.3103448 10.0689655,15.4647294 10.0689655,15.6551724 L10.0689655,15.6551724 C10.0689655,15.8456154 9.91458095,16 9.72413793,16 L3.93103448,16 C3.74059147,16 3.5862069,15.8456154 3.5862069,15.6551724 L3.5862069,15.6551724 C3.5862069,15.4647294 3.74059147,15.3103448 3.93103448,15.3103448 Z" id="Rectangle-5" fill="#C8BDB8"></path>
                <path d="M1.62335754,2.0822218 L12.0121072,2.0822218 C12.5458577,2.0822218 12.9855241,2.50140421 13.0109701,3.03454781 L13.2413793,7.86206897 L0.394085392,7.86206897 L0.624494594,3.03454781 C0.649940612,2.50140421 1.08960705,2.0822218 1.62335754,2.0822218 Z" id="Rectangle" fill="#D3CCC9"></path>
                <path d="M1.94370943,2.09519001 L1.94370943,2.09519001 C1.94370943,1.24375023 2.63393775,0.553521911 3.48537753,0.553521911 L4.68663033,0.553521911" id="Path-2" stroke="#C8BDB8" stroke-width="0.4"></path>
                <rect id="Rectangle-2" fill="#C8BDB8" x="4.55172414" y="0" width="2.20689655" height="1.10344828" rx="0.551724138"></rect>
            </g>
            <polygon id="Rectangle-2" fill="#D9D7CA" points="20.2600002 0.170000002 27.8299999 7.6500001 20.2600002 7.6500001"></polygon>
            <path d="M0.952651163,36 C0.426511628,36 0,35.5761765 0,35.0533529 L0,25 L28,25 L28,35.0533529 C28,35.5761765 27.5734884,36 27.0473488,36 L0.952651163,36 Z" id="Fill-178" fill="#1C90F5" fill-rule="nonzero"></path>
            <path d="M10.7430106,26.8849611 L8.29672149,29.7365236 L10.8650809,33.5500002 L9.61996368,33.5500002 L7.54965118,30.4689455 L6.77328399,31.3039064 L6.77328399,33.5500002 L5.76742462,33.5500002 L5.76742462,26.8849611 L6.77328399,26.8849611 L6.77328399,29.9904299 L6.8172293,29.9904299 L9.59554962,26.8849611 L10.7430106,26.8849611 Z M16.0262137,32.6320314 L16.0262137,33.5500002 L11.929534,33.5500002 L11.929534,26.8849611 L16.0262137,26.8849611 L16.0262137,27.8029299 L12.9305106,27.8029299 L12.9305106,29.7218752 L15.8504324,29.7218752 L15.8504324,30.6007814 L12.9305106,30.6007814 L12.9305106,32.6320314 L16.0262137,32.6320314 Z M20.0398856,33.5500002 L19.0340262,33.5500002 L19.0340262,30.8449221 L16.8074637,26.8849611 L17.9402762,26.8849611 L19.5174246,29.7755861 L19.5662527,29.7755861 L21.1531668,26.8849611 L22.2664481,26.8849611 L20.0398856,30.8302736 L20.0398856,33.5500002 Z" id="KEY" fill="#FFFFFF"></path>
        </g>
    </g>
</svg>
