<svg width="36" height="36" viewBox="0 0 36 36" xmlns="http://www.w3.org/2000/svg"><title>file_m4a</title><g fill="none" fill-rule="evenodd"><path d="M4.953 0C4.427 0 4 .421 4 1.238V35.05c0 .222.427.95.953.95h26.094c.526 0 .953-.728.953-.95V8.343c0-.447-.06-.591-.167-.697L24.256.165A.58.58 0 0 0 23.85 0H4.953z" fill="#E9E9E0" fill-rule="nonzero"/><path fill="#D9D7CA" d="M24.2600002 0.170000002L31.8299999 7.6500001 24.2600002 7.6500001z"/><path d="M4.953 36A.95.95 0 0 1 4 35.053V25h28v10.053a.95.95 0 0 1-.953.947H4.953z" fill="#7D6599" fill-rule="nonzero"/><path d="M9.308 33.55h-.99v-6.665h1.108l2.036 4.614h.039l2.036-4.614h1.103v6.665h-1v-4.585h-.06l-1.708 3.843h-.796l-1.709-3.843h-.059v4.585zm9.385-6.665h1.612v4.424h.84v.957h-.84v1.284h-1.05v-1.284h-3.228v-.972c.801-1.48 1.753-2.944 2.666-4.409zm-1.626 4.424h2.188v-3.511H19.2c-.723 1.099-1.49 2.305-2.134 3.467v.044zm5.84 2.241h-1.133l2.295-6.665h1.236l2.294 6.665h-1.171l-.591-1.807h-2.34l-.59 1.807zm1.787-5.479h-.049l-.898 2.784h1.84l-.893-2.784z" fill="#FFF"/><path d="M23.394 9.634c-.364-.512-.835-.992-1.483-1.51-2.516-2.014-3.058-4.036-3.126-4.332v-.578a.642.642 0 1 0-1.286 0v11.837h-2.382c-2.496 0-4.046 1.26-4.046 3.29 0 2.227 1.44 3.667 3.668 3.667a4.05 4.05 0 0 0 4.046-4.046v-7.375l.192.156c.218.216.553.463.978.775 1.49 1.099 3.986 2.936 3.358 5.01a.643.643 0 0 0 1.23.373c1.046-3.456-.271-6.037-1.149-7.267zM17.5 17.962a2.763 2.763 0 0 1-2.76 2.76c-1.514 0-2.382-.867-2.382-2.382 0-1.656 1.5-2.004 2.76-2.004h2.382v1.626zm3.218-7.478c-.367-.272-.685-.505-.881-.695l-1.05-.862V6.695c.53.754 1.277 1.597 2.321 2.432.552.443.946.84 1.24 1.254.46.644.92 1.503 1.15 2.556-.853-1.034-1.983-1.866-2.78-2.453z" fill="#C8BDB8" fill-rule="nonzero"/></g></svg>