<svg height="36" viewBox="0 0 36 36" width="36" xmlns="http://www.w3.org/2000/svg"><g fill="none" fill-rule="evenodd"><path d="m4.953 0c-.526 0-.953.421-.953 1.238v33.812c0 .222.427.95.953.95h26.094c.526 0 .953-.728.953-.95v-26.707c0-.447-.06-.591-.167-.697l-7.577-7.481a.58.58 0 0 0 -.406-.165z" fill="#e9e9e0" fill-rule="nonzero"/><path d="m24.2600002.17 7.5699997 7.4800001h-7.5699997z" fill="#d9d7ca"/><path d="m4.953 36a.95.95 0 0 1 -.953-.947v-10.053h28v10.053a.95.95 0 0 1 -.953.947zm6.975-14.577c-.224 0-.438-.073-.622-.21-.669-.503-.759-1.061-.716-1.442.117-1.046 1.41-2.142 3.847-3.258.967-2.119 1.887-4.73 2.435-6.91-.641-1.398-1.264-3.208-.81-4.272.16-.371.358-.657.729-.78.147-.05.517-.111.653-.111.324 0 .609.417.81.674.19.242.62.755-.24 4.373.867 1.79 2.094 3.613 3.272 4.86.842-.151 1.567-.23 2.158-.23 1.007 0 1.617.236 1.866.719.206.4.12.867-.252 1.388-.358.501-.85.766-1.427.766-.781 0-1.692-.494-2.707-1.469a30.793 30.793 0 0 0 -5.676 1.814c-.537 1.14-1.052 2.06-1.531 2.733-.658.924-1.226 1.355-1.789 1.355zm1.711-3.296c-1.374.772-1.934 1.407-1.974 1.764-.006.06-.024.215.277.445.096-.03.655-.285 1.697-2.209zm8.767-2.855c.524.403.652.607.995.607.15 0 .58-.007.777-.284a.998.998 0 0 0 .148-.266c-.079-.043-.184-.127-.756-.127a9.14 9.14 0 0 0 -1.164.07zm-4.802-4.232a46.119 46.119 0 0 1 -1.72 4.863 32.12 32.12 0 0 1 4.177-1.299c-.868-1.008-1.735-2.266-2.457-3.564zm-.39-5.44c-.063.022-.855 1.13.061 2.068.61-1.36-.034-2.076-.061-2.067z" fill="#cc4b4c" fill-rule="nonzero"/><path d="m12.2 27.167c1.332 0 2.167.909 2.167 2.149s-.84 2.134-2.173 2.134h-1.494v2.383h-1.006v-6.666zm1.137 2.149c0-.796-.464-1.245-1.26-1.245h-1.377v2.49h1.377c.796 0 1.26-.459 1.26-1.245zm2.305-2.149h2.236c1.968 0 2.944 1.177 2.944 3.326 0 2.148-.981 3.34-2.944 3.34h-2.236zm1.005.914v4.834h1.138c1.353 0 2.002-.796 2.002-2.408 0-1.616-.654-2.426-2.002-2.426zm6.622 5.752h-1.006v-6.666h4.043v.923h-3.037v2.066h2.778v.908h-2.778z" fill="#fff"/></g></svg>
