<svg width="36" height="36" viewBox="0 0 36 36" xmlns="http://www.w3.org/2000/svg"><g fill="none" fill-rule="evenodd"><path d="M4.953 0C4.427 0 4 .421 4 1.238V35.05c0 .222.427.95.953.95h26.094c.526 0 .953-.728.953-.95V8.343c0-.447-.06-.591-.167-.697L24.256.165A.58.58 0 0 0 23.85 0H4.953z" fill="#E9E9E0" fill-rule="nonzero"/><path d="M11 6h14.222v3.778H11V6zm0 5.556h4.222V22H11V11.556zm6 0h8.222V22H17V11.556z" fill="#D3CCC9"/><path fill="#D9D7CA" d="M24.2600002 0.170000002L31.8299999 7.6500001 24.2600002 7.6500001z"/><path d="M4.953 36A.95.95 0 0 1 4 35.053V25h28v10.053a.95.95 0 0 1-.953.947H4.953z" fill="#009BCA" fill-rule="nonzero"/><path d="M14.897 26.885c1.401 0 2.246.815 2.246 2.07 0 .952-.547 1.616-1.226 1.866l1.348 2.729H16.02l-1.196-2.54h-1.382v2.54h-1.094v-6.665h2.549zm-1.455 3.213h1.27c.815 0 1.288-.376 1.288-1.109 0-.747-.488-1.162-1.26-1.162h-1.298v2.27zm7.773-3.213c1.367 0 2.193.933 2.193 2.173 0 1.25-.835 2.163-2.203 2.163h-1.44v2.329h-1.108v-6.665h2.558zm1.06 2.173c0-.777-.454-1.22-1.226-1.22H19.76v2.44h1.29c.77 0 1.225-.449 1.225-1.22z" fill="#FFF"/></g></svg>
