<svg width="36" height="36" viewBox="0 0 36 36" xmlns="http://www.w3.org/2000/svg"><g fill="none" fill-rule="evenodd"><path d="M4.953 0C4.427 0 4 .421 4 1.238V35.05c0 .222.427.95.953.95h26.094c.526 0 .953-.728.953-.95V8.343c0-.447-.06-.591-.167-.697L24.256.165A.58.58 0 0 0 23.85 0H4.953z" fill="#E9E9E0" fill-rule="nonzero"/><path d="M17.333 13.584a.886.886 0 0 1 .67-.302.886.886 0 0 1 .669.302l3.554 3.433V8.889a.889.889 0 1 1 1.778 0V19.11a.889.889 0 0 1-1.506.64l-4.496-4.342-4.496 4.342A.889.889 0 0 1 12 19.11V8.89a.889.889 0 1 1 1.778 0v8.128l3.555-3.433z" fill="#C8BDB8"/><path fill="#D9D7CA" d="M24.2600002 0.170000002L31.8299999 7.6500001 24.2600002 7.6500001z"/><path d="M4.953 36A.95.95 0 0 1 4 35.053V25h28v10.053a.95.95 0 0 1-.953.947H4.953z" fill="#429EFB" fill-rule="nonzero"/><path d="M10.27 33.55H9.264l-1.796-6.665h1.23l1.108 5.01h.054l1.245-5.01h1.006l1.24 5.01h.059l1.104-5.01h1.23l-1.797 6.665h-1.006l-1.313-4.858h-.044L10.27 33.55zm9.087-6.665c1.367 0 2.193.933 2.193 2.173 0 1.25-.835 2.163-2.202 2.163h-1.44v2.329h-1.11v-6.665h2.56zm1.06 2.173c0-.777-.454-1.22-1.226-1.22h-1.289v2.44h1.29c.77 0 1.225-.449 1.225-1.22zm1.929 2.724h1.088c.108.557.66.948 1.485.948.874 0 1.382-.4 1.382-1.001 0-.493-.337-.757-1.06-.933l-1.094-.264c-1.015-.239-1.63-.84-1.63-1.806 0-1.187.996-1.988 2.407-1.988 1.42 0 2.31.811 2.392 1.832h-1.074c-.107-.518-.586-.884-1.328-.884-.786 0-1.284.4-1.284.967 0 .43.327.712.923.85l1.088.263c1.123.263 1.768.796 1.768 1.855 0 1.23-.957 2.06-2.573 2.06-1.553 0-2.412-.839-2.49-1.899z" fill="#FFF" fill-rule="nonzero"/></g></svg>