<svg height="36" viewBox="0 0 36 36" width="36" xmlns="http://www.w3.org/2000/svg"><g fill="none" fill-rule="evenodd"><path d="m4.953 0c-.526 0-.953.421-.953 1.238v33.812c0 .222.427.95.953.95h26.094c.526 0 .953-.728.953-.95v-26.707c0-.447-.06-.591-.167-.697l-7.577-7.481a.58.58 0 0 0 -.406-.165z" fill="#e9e9e0" fill-rule="nonzero"/><path d="m24.2600002.17 7.5699997 7.4800001h-7.5699997z" fill="#d9d7ca"/><path d="m4.953 36a.95.95 0 0 1 -.953-.947v-10.053h28v10.053a.95.95 0 0 1 -.953.947z" fill="#659c35" fill-rule="nonzero"/><path d="m4 25h28v-7.8928571l-6.7857143-6.1071429-6.75 7.3928571-3.5247857-3.5247857-10.9395 9.3105z" fill="#88c057" fill-rule="nonzero"/><path d="m11.801 33.83h-1.006v-6.665h1.006zm2.554-3.76v.889c0 1.323.605 2.07 1.675 2.07.84 0 1.416-.483 1.494-1.181h.986v.068c-.088 1.196-1.118 2.05-2.485 2.05-1.714 0-2.686-1.112-2.686-3.002v-.903c0-1.885.992-3.028 2.686-3.028 1.372 0 2.402.88 2.485 2.134v.068h-.986c-.078-.737-.674-1.27-1.494-1.27-1.05 0-1.675.777-1.675 2.105zm9.834-.034c0-1.391-.737-2.075-1.714-2.075-.981 0-1.714.684-1.714 2.075v.928c0 1.391.733 2.07 1.714 2.07.977 0 1.714-.679 1.714-2.07zm1.016.923c0 1.885-1.06 3.008-2.73 3.008-1.675 0-2.73-1.123-2.73-3.008v-.918c0-1.895 1.055-3.008 2.73-3.008 1.67 0 2.73 1.118 2.73 3.008z" fill="#fff"/><path d="m14.491 9.277a2.938 2.938 0 1 1 -5.875 0 2.938 2.938 0 0 1 5.875 0" fill="#f3d55b" fill-rule="nonzero"/></g></svg>
