<svg width="36px" height="36px" viewBox="0 0 36 36" version="1.1" xmlns="http://www.w3.org/2000/svg" xmlns:xlink="http://www.w3.org/1999/xlink">
    <g id="file_numbers" stroke="none" stroke-width="1" fill="none" fill-rule="evenodd">
        <path d="M4.95265116,0 C4.42651163,0 4,0.421071429 4,1.23814286 L4,35.0499992 C4,35.271785 4.42651163,36 4.95265116,36 L31.0473488,36 C31.5734884,36 32,35.271785 32,35.0499992 L32,8.343 C32,7.89557143 31.9394419,7.75157143 31.8326512,7.6455 L24.2557209,0.165214286 C24.1482791,0.0597857143 24.0024186,0 23.8506977,0 L4.95265116,0 Z" id="Fill-16" fill="#E9E9E0" fill-rule="nonzero"></path>
        <g id="Group" transform="translate(9.000000, 6.000000)">
            <rect id="Rectangle-7" fill="#D3CCC9" x="0.153846154" y="11.3846154" width="4" height="3.07692308" rx="0.3"></rect>
            <rect id="Rectangle" fill="#D3CCC9" x="4.92307692" y="7.69230769" width="4" height="6.76923077" rx="0.3"></rect>
            <rect id="Rectangle-2" fill="#D3CCC9" x="9.69230769" y="0" width="4" height="14.4615385" rx="0.3"></rect>
            <rect id="Rectangle-3" fill="#D3CCC9" x="14.4615385" y="4.15384615" width="4" height="10.3076923" rx="0.3"></rect>
            <rect id="Rectangle-4" fill="#C8BDB8" x="0" y="15.2307692" width="18.6153846" height="1" rx="0.384615385"></rect>
        </g>
        <polygon id="Rectangle-2" fill="#D9D7CA" points="24.2600002 0.170000002 31.8299999 7.6500001 24.2600002 7.6500001"></polygon>
        <path d="M4.95265116,36 C4.42651163,36 4,35.5761765 4,35.0533529 L4,25 L32,25 L32,35.0533529 C32,35.5761765 31.5734884,36 31.0473488,36 L4.95265116,36 Z" id="Fill-178" fill="#22DB2A" fill-rule="nonzero"></path>
        <path d="M7.11117462,33.5500002 L6.13461212,33.5500002 L6.13461212,26.8849611 L7.04769805,26.8849611 L10.2508231,31.7091799 L10.2996512,31.7091799 L10.2996512,26.8849611 L11.2762137,26.8849611 L11.2762137,33.5500002 L10.3631277,33.5500002 L7.15511993,28.711133 L7.11117462,28.711133 L7.11117462,33.5500002 Z M15.5779715,32.7443361 C16.5350027,32.7443361 17.1551199,32.1632814 17.1551199,31.1818361 L17.1551199,26.8849611 L18.1609793,26.8849611 L18.1609793,31.2501955 C18.1609793,32.7101564 17.1355887,33.6867189 15.5779715,33.6867189 C14.0203543,33.6867189 12.9949637,32.7101564 12.9949637,31.2501955 L12.9949637,26.8849611 L14.0008231,26.8849611 L14.0008231,31.1818361 C14.0008231,32.1681643 14.6209402,32.7443361 15.5779715,32.7443361 Z M20.8074637,33.5500002 L19.8992606,33.5500002 L19.8992606,26.8849611 L20.9002371,26.8849611 L22.9998465,31.6554689 L23.038909,31.6554689 L25.1385184,26.8849611 L26.1346121,26.8849611 L26.1346121,33.5500002 L25.2215262,33.5500002 L25.2215262,28.8820314 L25.1678152,28.8820314 L23.4002371,32.8566408 L22.6336356,32.8566408 L20.8562918,28.8820314 L20.8074637,28.8820314 L20.8074637,33.5500002 Z M27.7850027,32.8957033 C27.7850027,32.4416018 28.117034,32.1339846 28.5223074,32.1339846 C28.9471121,32.1339846 29.2742606,32.4416018 29.2742606,32.8957033 C29.2742606,33.3351564 28.9471121,33.6378908 28.5223074,33.6378908 C28.117034,33.6378908 27.7850027,33.3351564 27.7850027,32.8957033 Z" id="NUM." fill="#FFFFFF"></path>
    </g>
</svg>
