<svg height="36" viewBox="0 0 36 36" width="36" xmlns="http://www.w3.org/2000/svg"><g fill="none" fill-rule="evenodd"><path d="m4.953 0c-.526 0-.953.421-.953 1.238v33.812c0 .222.427.95.953.95h26.094c.526 0 .953-.728.953-.95v-26.707c0-.447-.06-.591-.167-.697l-7.577-7.481a.58.58 0 0 0 -.406-.165z" fill="#e9e9e0" fill-rule="nonzero"/><path d="m24.2600002.17 7.5699997 7.4800001h-7.5699997z" fill="#d9d7ca"/><path d="m7.875 7.875a1.124 1.124 0 1 1 0-2.25h9a1.124 1.124 0 1 1 0 2.25zm0 4.5a1.124 1.124 0 1 1 0-2.25h9a1.124 1.124 0 1 1 0 2.25zm0 4.5a1.124 1.124 0 1 1 0-2.25h20.25a1.124 1.124 0 1 1 0 2.25zm20.25 2.25a1.124 1.124 0 1 1 0 2.25h-20.25a1.124 1.124 0 1 1 0-2.25z" fill="#c8bdb8" fill-rule="nonzero" opacity=".8"/><path d="m4.953 36a.95.95 0 0 1 -.953-.947v-10.053h28v10.053a.95.95 0 0 1 -.953.947z" fill="#ffd326" fill-rule="nonzero"/><path d="m7.392 33.83h-.976v-6.665h.913l3.203 4.824h.049v-4.824h.976v6.665h-.913l-3.208-4.839h-.044v4.84zm10.142-3.794c0-1.391-.738-2.075-1.714-2.075-.982 0-1.714.684-1.714 2.075v.928c0 1.391.732 2.07 1.714 2.07.976 0 1.714-.679 1.714-2.07zm1.015.923c0 1.885-1.06 3.008-2.73 3.008-1.674 0-2.729-1.123-2.729-3.008v-.918c0-1.895 1.055-3.008 2.73-3.008 1.67 0 2.73 1.118 2.73 3.008v.918zm3.838 2.871h-1.006v-5.737h-1.977v-.928h4.96v.928h-1.977zm7.197-.918v.918h-4.096v-6.665h4.096v.918h-3.094v1.919h2.92v.879h-2.92v2.031h3.095z" fill="#fff"/></g></svg>
