<svg height="36" viewBox="0 0 36 36" width="36" xmlns="http://www.w3.org/2000/svg"><g fill="none" fill-rule="evenodd"><path d="m4.953 0c-.526 0-.953.421-.953 1.238v33.812c0 .222.427.95.953.95h26.094c.526 0 .953-.728.953-.95v-26.707c0-.447-.06-.591-.167-.697l-7.577-7.481a.58.58 0 0 0 -.406-.165z" fill="#e9e9e0" fill-rule="nonzero"/><path d="m24.2600002.17 7.5699997 7.4800001h-7.5699997z" fill="#d9d7ca"/><path d="m4.953 36a.95.95 0 0 1 -.953-.947v-10.053h28v10.053a.95.95 0 0 1 -.953.947z" fill="#556080" fill-rule="nonzero"/><path d="m11.127 33.833v-.728l3.453-4.961v-.059h-3.34v-.918h4.575v.728l-3.433 4.961v.059h3.52v.918zm7.27 0h-1.005v-6.666h1.006v6.666zm4.308-6.666c1.333 0 2.168.909 2.168 2.149s-.84 2.134-2.173 2.134h-1.494v2.383h-1.006v-6.666zm1.137 2.149c0-.796-.464-1.245-1.26-1.245h-1.376v2.49h1.377c.795 0 1.26-.459 1.26-1.245z" fill="#fff"/><g fill="#c8bdb8" fill-rule="nonzero"><path d="m18.643 15.429v-1.286h1.286v-1.286h-1.286v-1.286h1.286v-1.285h-1.286v-1.286h1.286v-1.286h-1.286v-1.284h1.286v-1.287h-1.286v-1.286h-1.286v1.286h-1.286v1.286h1.286v1.285h-1.286v1.286h1.286v1.286h-1.286v1.285h1.286v1.286h-1.286v1.286h1.286v1.286h-2.571v3.214a3.218 3.218 0 0 0 3.214 3.214 3.218 3.218 0 0 0 3.214-3.214v-3.214zm1.286 3.214a1.93 1.93 0 0 1 -1.929 1.927 1.93 1.93 0 0 1 -1.929-1.928v-1.929h3.858v1.929z"/><path d="m16.42 19.286h1.285a.643.643 0 1 0 0-1.286h-1.285a.643.643 0 1 0 0 1.286"/></g></g></svg>
