<svg height="36" viewBox="0 0 36 36" width="36" xmlns="http://www.w3.org/2000/svg"><g fill="none" fill-rule="evenodd"><path d="m4.953 0c-.526 0-.953.421-.953 1.238v33.812c0 .222.427.95.953.95h26.094c.526 0 .953-.728.953-.95v-26.707c0-.447-.06-.591-.167-.697l-7.577-7.481a.58.58 0 0 0 -.406-.165z" fill="#e9e9e0" fill-rule="nonzero"/><path d="m24.2600002.17 7.5699997 7.4800001h-7.5699997z" fill="#d9d7ca"/><path d="m4.953 36a.95.95 0 0 1 -.953-.947v-10.053h28v10.053a.95.95 0 0 1 -.953.947z" fill="#f36fa0" fill-rule="nonzero"/><path d="m15.107 10.286v-2.572h-7.714v14.143h21.214v-11.571zm-6.427-1.286h5.142v1.286h-5.142zm0 2.571h5.142v1.286h-5.142zm0 2.572h5.142v1.286h-5.142zm0 2.571h5.142v1.286h-5.142zm0 2.572h5.142v1.285h-5.142zm6.428 0h12.214v1.285h-12.215v-1.285zm0-2.572h12.214v1.286h-12.215v-1.286zm0-2.571h12.214v1.286h-12.215v-1.286zm0-2.572h12.214v1.286h-12.215v-1.286z" fill="#c8bdb8" fill-rule="nonzero"/><path d="m10.141 30.078v.888c0 1.324.606 2.07 1.675 2.07.84 0 1.416-.483 1.494-1.181h.986v.068c-.088 1.197-1.118 2.051-2.485 2.051-1.714 0-2.686-1.113-2.686-3.003v-.903c0-1.885.992-3.027 2.686-3.027 1.372 0 2.402.878 2.485 2.133v.069h-.986c-.078-.738-.674-1.27-1.494-1.27-1.05 0-1.675.777-1.675 2.105zm5.19 2.016h.997c.117.581.693.977 1.543.977.898 0 1.435-.415 1.435-1.045 0-.508-.337-.786-1.07-.967l-1.127-.273c-1.006-.25-1.602-.85-1.602-1.792 0-1.172.987-1.968 2.368-1.968 1.373 0 2.261.781 2.354 1.802h-.991c-.113-.542-.615-.909-1.377-.909-.81 0-1.338.415-1.338 1.011 0 .44.327.737.928.88l1.118.273c1.142.278 1.748.815 1.748 1.845 0 1.226-.957 2.046-2.534 2.046-1.485 0-2.368-.815-2.451-1.88zm8.096 1.743-2.348-6.665h1.152l1.733 5.445h.054l1.729-5.445h1.128l-2.344 6.665z" fill="#fff"/></g></svg>
