<svg height="36" viewBox="0 0 36 36" width="36" xmlns="http://www.w3.org/2000/svg"><g fill="none" fill-rule="evenodd"><path d="m4.95265116 0c-.52613953 0-.95265116.42107143-.95265116 1.23814286v33.81185634c0 .2217858.42651163.9500008.95265116.9500008h26.09469764c.5261396 0 .9526512-.728215.9526512-.9500008v-26.7069992c0-.44742857-.0605581-.59142857-.1673488-.6975l-7.5769303-7.48028571c-.1074418-.10542858-.2533023-.16521429-.4050232-.16521429z" fill="#e9e9e0" fill-rule="nonzero"/><path d="m24.2600002.17 7.5699997 7.4800001h-7.5699997z" fill="#d9d7ca"/><path d="m4.95265116 36c-.52613953 0-.95265116-.4238235-.95265116-.9466471v-10.0533529h28v10.0533529c0 .5228236-.4265116.9466471-.9526512.9466471z" fill="#f7712e" fill-rule="nonzero"/><path d="m9.4500418 26.8849611c1.3330078 0 2.1679688.9082032 2.1679688 2.1484375 0 1.2402344-.8398438 2.1337891-2.17285161 2.1337891h-1.49414062v2.3828125h-1.00585938v-6.6650391zm1.1376953 2.1484375c0-.7958984-.4638672-1.2451172-1.25976561-1.2451172h-1.37695312v2.4902344h1.37695312c.79589841 0 1.25976561-.4589844 1.25976561-1.2451172zm4.8095703-2.1484375c1.3330078 0 2.1679688.9082032 2.1679688 2.1484375 0 1.2402344-.8398438 2.1337891-2.1728516 2.1337891h-1.4941406v2.3828125h-1.0058594v-6.6650391zm1.1376953 2.1484375c0-.7958984-.4638671-1.2451172-1.2597656-1.2451172h-1.3769531v2.4902344h1.3769531c.7958985 0 1.2597656-.4589844 1.2597656-1.2451172zm4.6142579 4.5166016h-1.0058594v-5.7373047h-1.9775391v-.9277344h4.9609375v.9277344h-1.977539zm7.9199218-6.6650391-2.1826172 3.3544922 2.1435547 3.3105469h-1.1865234l-1.5869141-2.5h-.0488281l-1.5917969 2.5h-1.118164l2.1386718-3.359375-2.1142578-3.3056641h1.2011719l1.5820313 2.5195313h.0488281l1.5673828-2.5195313z" fill="#fff"/><g fill-rule="nonzero"><path d="m9.34821429 9h15.42857141v10.2857143h-15.42857141zm1.28571431 9h12.8571428v-7.7142857h-12.8571428z" fill="#c8bdb8"/><path d="m12.5618571 22.5c-.1125 0-.2262857-.0295714-.3304285-.0919286-.3040715-.1825714-.4030715-.5772857-.2198572-.882l1.9285715-3.2142857c.1825714-.3040714.5772857-.4030714.882-.2198571.3040714.1825714.4030714.5772857.2198571.882l-1.9285714 3.2142857c-.1202143.2005714-.333.3117857-.5515715.3117857" fill="#c8bdb8"/><path d="m21.5631429 22.5c-.2185715 0-.4313572-.1112143-.5515715-.3117857l-1.9285714-3.2142857c-.1832143-.3047143-.0842143-.6994286.2198571-.882.3047143-.1825715.6994286-.0842143.882.2198571l1.9285715 3.2142857c.1832143.3047143.0842143.6994286-.2198572.882-.1035.0623572-.2179285.0919286-.3304285.0919286" fill="#c8bdb8"/><path d="m17.0625 10.2857143c-.3548571 0-.6428571-.28735716-.6428571-.64285716v-1.92857143c0-.3555.288-.64285714.6428571-.64285714s.6428571.28735714.6428571.64285714v1.92857143c0 .3555-.288.64285716-.6428571.64285716" fill="#c8bdb8"/><path d="m10.6339286 10.2857143h12.8571428v7.7142857h-12.8571428z" fill="#d3ccc9"/></g></g></svg>
