<svg height="36" viewBox="0 0 36 36" width="36" xmlns="http://www.w3.org/2000/svg"><g fill="none" fill-rule="evenodd"><path d="m4.95265116 0c-.52613953 0-.95265116.42107143-.95265116 1.23814286v33.81185634c0 .2217858.42651163.9500008.95265116.9500008h26.09469764c.5261396 0 .9526512-.728215.9526512-.9500008v-26.7069992c0-.44742857-.0605581-.59142857-.1673488-.6975l-7.5769303-7.48028571c-.1074418-.10542858-.2533023-.16521429-.4050232-.16521429z" fill="#e9e9e0" fill-rule="nonzero"/><path d="m13.3770492 7.08183607c.1450492 0 .2622951.1172459.2622951.26229508v8.39344265c0 .1450492-.1172459.2622951-.2622951.2622951h-13.11475412c-.14504918 0-.26229508-.1172459-.26229508-.2622951v-13.11475413c0-.14504918.1172459-.26229508.26229508-.26229508h8.39344262c.14504919 0 .26229509.1172459.26229509.26229508s-.1172459.26229508-.26229509.26229508h-8.13114754v12.59016395h12.59016394v-8.13114755c0-.14504918.1172459-.26229508.2622951-.26229508zm-.402623-5.53993443 1.483541 1.48354098-6.89652458 6.89652459-2.0532459.56970489.56970492-2.05324587zm2.718164-1.23462295c.4099672.40944262.4099672 1.07409836 0 1.48354098l-.8637377.86373771-1.483541-1.48354099.8637377-.8637377c.4091803-.40970492 1.0740983-.40970492 1.483541 0z" fill="#c8bdb8" transform="translate(10 6)"/><path d="m24.2600002.17 7.5699997 7.4800001h-7.5699997z" fill="#d9d7ca"/><g fill-rule="nonzero"><path d="m4.95265116 36c-.52613953 0-.95265116-.4238235-.95265116-.9466471v-10.0533529h28v10.0533529c0 .5228236-.4265116.9466471-.9526512.9466471z" fill="#355595"/><path d="m8.80322266 33.8325195h-1.10839844v-5.6738281h-1.94824219v-.9912109h5.00976567v.9912109h-1.95312504zm3.04687504-6.665039h2.2998046c1.9873047 0 2.9541016 1.1914062 2.9541016 3.3203125 0 2.1386718-.9765625 3.3447265-2.9541016 3.3447265h-2.2998046zm1.1083984.9716797v4.7216796h1.0693359c1.3183594 0 1.9384766-.78125 1.9384766-2.3535156 0-1.5771484-.625-2.368164-1.9384766-2.368164zm9.7021484 1.9091796c0-1.352539-.703125-2.0214843-1.6455078-2.0214843-.9521484 0-1.6503906.6689453-1.6503906 2.0214843v.9082032c0 1.352539.6982422 2.0214843 1.6503906 2.0214843.9423828 0 1.6455078-.6689453 1.6455078-2.0214843zm1.1230469.9033204c0 1.8847656-1.0595703 3.0126953-2.7685547 3.0126953s-2.7734375-1.1279297-2.7734375-3.0126953v-.8935547c0-1.8945313 1.0644531-3.022461 2.7734375-3.022461s2.7685547 1.1328125 2.7685547 3.022461zm2.34375-.8691407v.8691407c0 1.2890625.5859375 2.0117187 1.6064453 2.0117187.8154297 0 1.3671875-.4833984 1.4404297-1.1767578h1.0791016v.0927734c-.0830078 1.225586-1.1279297 2.084961-2.5244141 2.084961-1.7431641 0-2.7246094-1.1230469-2.7246094-3.0126953v-.8789063c0-1.8847656 1.0009766-3.0371094 2.7246094-3.0371094 1.4013672 0 2.4462891.8886719 2.5244141 2.1679688v.0878906h-1.0791016c-.0732422-.7275391-.6396484-1.2548828-1.4404297-1.2548828-1.0107422 0-1.6064453.7519531-1.6064453 2.0458984z" fill="#fff"/></g></g></svg>